%TF.GenerationSoftware,KiCad,Pcbnew,7.0.5*%
%TF.CreationDate,2023-08-06T14:28:47-05:00*%
%TF.ProjectId,mainv2,6d61696e-7632-42e6-9b69-6361645f7063,rev?*%
%TF.SameCoordinates,Original*%
%TF.FileFunction,Copper,L1,Top*%
%TF.FilePolarity,Positive*%
%FSLAX46Y46*%
G04 Gerber Fmt 4.6, Leading zero omitted, Abs format (unit mm)*
G04 Created by KiCad (PCBNEW 7.0.5) date 2023-08-06 14:28:47*
%MOMM*%
%LPD*%
G01*
G04 APERTURE LIST*
G04 Aperture macros list*
%AMRoundRect*
0 Rectangle with rounded corners*
0 $1 Rounding radius*
0 $2 $3 $4 $5 $6 $7 $8 $9 X,Y pos of 4 corners*
0 Add a 4 corners polygon primitive as box body*
4,1,4,$2,$3,$4,$5,$6,$7,$8,$9,$2,$3,0*
0 Add four circle primitives for the rounded corners*
1,1,$1+$1,$2,$3*
1,1,$1+$1,$4,$5*
1,1,$1+$1,$6,$7*
1,1,$1+$1,$8,$9*
0 Add four rect primitives between the rounded corners*
20,1,$1+$1,$2,$3,$4,$5,0*
20,1,$1+$1,$4,$5,$6,$7,0*
20,1,$1+$1,$6,$7,$8,$9,0*
20,1,$1+$1,$8,$9,$2,$3,0*%
G04 Aperture macros list end*
%ADD10C,0.300000*%
%TA.AperFunction,NonConductor*%
%ADD11C,0.300000*%
%TD*%
%TA.AperFunction,NonConductor*%
%ADD12C,0.200000*%
%TD*%
%TA.AperFunction,SMDPad,CuDef*%
%ADD13R,0.540000X0.940000*%
%TD*%
%TA.AperFunction,SMDPad,CuDef*%
%ADD14R,0.620000X0.600000*%
%TD*%
%TA.AperFunction,SMDPad,CuDef*%
%ADD15R,0.420000X0.420000*%
%TD*%
%TA.AperFunction,SMDPad,CuDef*%
%ADD16R,0.420000X0.460000*%
%TD*%
%TA.AperFunction,SMDPad,CuDef*%
%ADD17R,0.460000X0.420000*%
%TD*%
%TA.AperFunction,SMDPad,CuDef*%
%ADD18R,1.750000X1.100000*%
%TD*%
%TA.AperFunction,SMDPad,CuDef*%
%ADD19R,1.000000X0.950000*%
%TD*%
%TA.AperFunction,ComponentPad*%
%ADD20C,1.950000*%
%TD*%
%TA.AperFunction,SMDPad,CuDef*%
%ADD21R,0.850000X0.750000*%
%TD*%
%TA.AperFunction,ComponentPad*%
%ADD22R,1.700000X1.700000*%
%TD*%
%TA.AperFunction,ComponentPad*%
%ADD23O,1.700000X1.700000*%
%TD*%
%TA.AperFunction,SMDPad,CuDef*%
%ADD24R,0.800000X1.000000*%
%TD*%
%TA.AperFunction,SMDPad,CuDef*%
%ADD25R,3.400000X1.100000*%
%TD*%
%TA.AperFunction,SMDPad,CuDef*%
%ADD26R,0.800000X0.950000*%
%TD*%
%TA.AperFunction,SMDPad,CuDef*%
%ADD27R,0.600000X1.150000*%
%TD*%
%TA.AperFunction,SMDPad,CuDef*%
%ADD28R,2.286000X1.397000*%
%TD*%
%TA.AperFunction,SMDPad,CuDef*%
%ADD29R,6.180000X5.690000*%
%TD*%
%TA.AperFunction,ComponentPad*%
%ADD30C,1.143000*%
%TD*%
%TA.AperFunction,SMDPad,CuDef*%
%ADD31R,0.650000X1.525000*%
%TD*%
%TA.AperFunction,SMDPad,CuDef*%
%ADD32R,0.800000X1.400000*%
%TD*%
%TA.AperFunction,SMDPad,CuDef*%
%ADD33R,0.300000X1.400000*%
%TD*%
%TA.AperFunction,ComponentPad*%
%ADD34O,0.900000X1.600000*%
%TD*%
%TA.AperFunction,ComponentPad*%
%ADD35O,0.900000X1.300000*%
%TD*%
%TA.AperFunction,SMDPad,CuDef*%
%ADD36R,0.420000X0.400000*%
%TD*%
%TA.AperFunction,SMDPad,CuDef*%
%ADD37R,1.200000X1.450000*%
%TD*%
%TA.AperFunction,SMDPad,CuDef*%
%ADD38RoundRect,0.150000X-0.512500X-0.150000X0.512500X-0.150000X0.512500X0.150000X-0.512500X0.150000X0*%
%TD*%
%TA.AperFunction,SMDPad,CuDef*%
%ADD39R,0.300000X0.250000*%
%TD*%
%TA.AperFunction,SMDPad,CuDef*%
%ADD40RoundRect,0.062500X0.062500X-0.350000X0.062500X0.350000X-0.062500X0.350000X-0.062500X-0.350000X0*%
%TD*%
%TA.AperFunction,SMDPad,CuDef*%
%ADD41RoundRect,0.062500X0.350000X-0.062500X0.350000X0.062500X-0.350000X0.062500X-0.350000X-0.062500X0*%
%TD*%
%TA.AperFunction,SMDPad,CuDef*%
%ADD42R,3.600000X3.600000*%
%TD*%
%TA.AperFunction,SMDPad,CuDef*%
%ADD43R,1.700000X1.700000*%
%TD*%
%TA.AperFunction,SMDPad,CuDef*%
%ADD44R,1.600000X1.600000*%
%TD*%
%TA.AperFunction,SMDPad,CuDef*%
%ADD45R,1.070000X3.420000*%
%TD*%
%TA.AperFunction,ViaPad*%
%ADD46C,0.800000*%
%TD*%
%TA.AperFunction,ViaPad*%
%ADD47C,0.400000*%
%TD*%
%TA.AperFunction,Conductor*%
%ADD48C,0.500000*%
%TD*%
%TA.AperFunction,Conductor*%
%ADD49C,0.300000*%
%TD*%
G04 APERTURE END LIST*
D10*
D11*
X180168328Y-104280355D02*
X180168328Y-104994641D01*
X180168328Y-104994641D02*
X180882614Y-105066069D01*
X180882614Y-105066069D02*
X180811185Y-104994641D01*
X180811185Y-104994641D02*
X180739757Y-104851784D01*
X180739757Y-104851784D02*
X180739757Y-104494641D01*
X180739757Y-104494641D02*
X180811185Y-104351784D01*
X180811185Y-104351784D02*
X180882614Y-104280355D01*
X180882614Y-104280355D02*
X181025471Y-104208926D01*
X181025471Y-104208926D02*
X181382614Y-104208926D01*
X181382614Y-104208926D02*
X181525471Y-104280355D01*
X181525471Y-104280355D02*
X181596900Y-104351784D01*
X181596900Y-104351784D02*
X181668328Y-104494641D01*
X181668328Y-104494641D02*
X181668328Y-104851784D01*
X181668328Y-104851784D02*
X181596900Y-104994641D01*
X181596900Y-104994641D02*
X181525471Y-105066069D01*
X180168328Y-103708927D02*
X180168328Y-102780355D01*
X180168328Y-102780355D02*
X180739757Y-103280355D01*
X180739757Y-103280355D02*
X180739757Y-103066070D01*
X180739757Y-103066070D02*
X180811185Y-102923213D01*
X180811185Y-102923213D02*
X180882614Y-102851784D01*
X180882614Y-102851784D02*
X181025471Y-102780355D01*
X181025471Y-102780355D02*
X181382614Y-102780355D01*
X181382614Y-102780355D02*
X181525471Y-102851784D01*
X181525471Y-102851784D02*
X181596900Y-102923213D01*
X181596900Y-102923213D02*
X181668328Y-103066070D01*
X181668328Y-103066070D02*
X181668328Y-103494641D01*
X181668328Y-103494641D02*
X181596900Y-103637498D01*
X181596900Y-103637498D02*
X181525471Y-103708927D01*
X181525471Y-102137499D02*
X181596900Y-102066070D01*
X181596900Y-102066070D02*
X181668328Y-102137499D01*
X181668328Y-102137499D02*
X181596900Y-102208927D01*
X181596900Y-102208927D02*
X181525471Y-102137499D01*
X181525471Y-102137499D02*
X181668328Y-102137499D01*
X180168328Y-101137498D02*
X180168328Y-100994641D01*
X180168328Y-100994641D02*
X180239757Y-100851784D01*
X180239757Y-100851784D02*
X180311185Y-100780356D01*
X180311185Y-100780356D02*
X180454042Y-100708927D01*
X180454042Y-100708927D02*
X180739757Y-100637498D01*
X180739757Y-100637498D02*
X181096900Y-100637498D01*
X181096900Y-100637498D02*
X181382614Y-100708927D01*
X181382614Y-100708927D02*
X181525471Y-100780356D01*
X181525471Y-100780356D02*
X181596900Y-100851784D01*
X181596900Y-100851784D02*
X181668328Y-100994641D01*
X181668328Y-100994641D02*
X181668328Y-101137498D01*
X181668328Y-101137498D02*
X181596900Y-101280356D01*
X181596900Y-101280356D02*
X181525471Y-101351784D01*
X181525471Y-101351784D02*
X181382614Y-101423213D01*
X181382614Y-101423213D02*
X181096900Y-101494641D01*
X181096900Y-101494641D02*
X180739757Y-101494641D01*
X180739757Y-101494641D02*
X180454042Y-101423213D01*
X180454042Y-101423213D02*
X180311185Y-101351784D01*
X180311185Y-101351784D02*
X180239757Y-101280356D01*
X180239757Y-101280356D02*
X180168328Y-101137498D01*
X180668328Y-99351785D02*
X181668328Y-99351785D01*
X180096900Y-99708927D02*
X181168328Y-100066070D01*
X181168328Y-100066070D02*
X181168328Y-99137499D01*
X180168328Y-97851785D02*
X180168328Y-98566071D01*
X180168328Y-98566071D02*
X180882614Y-98637499D01*
X180882614Y-98637499D02*
X180811185Y-98566071D01*
X180811185Y-98566071D02*
X180739757Y-98423214D01*
X180739757Y-98423214D02*
X180739757Y-98066071D01*
X180739757Y-98066071D02*
X180811185Y-97923214D01*
X180811185Y-97923214D02*
X180882614Y-97851785D01*
X180882614Y-97851785D02*
X181025471Y-97780356D01*
X181025471Y-97780356D02*
X181382614Y-97780356D01*
X181382614Y-97780356D02*
X181525471Y-97851785D01*
X181525471Y-97851785D02*
X181596900Y-97923214D01*
X181596900Y-97923214D02*
X181668328Y-98066071D01*
X181668328Y-98066071D02*
X181668328Y-98423214D01*
X181668328Y-98423214D02*
X181596900Y-98566071D01*
X181596900Y-98566071D02*
X181525471Y-98637499D01*
X180168328Y-96851785D02*
X180168328Y-96708928D01*
X180168328Y-96708928D02*
X180239757Y-96566071D01*
X180239757Y-96566071D02*
X180311185Y-96494643D01*
X180311185Y-96494643D02*
X180454042Y-96423214D01*
X180454042Y-96423214D02*
X180739757Y-96351785D01*
X180739757Y-96351785D02*
X181096900Y-96351785D01*
X181096900Y-96351785D02*
X181382614Y-96423214D01*
X181382614Y-96423214D02*
X181525471Y-96494643D01*
X181525471Y-96494643D02*
X181596900Y-96566071D01*
X181596900Y-96566071D02*
X181668328Y-96708928D01*
X181668328Y-96708928D02*
X181668328Y-96851785D01*
X181668328Y-96851785D02*
X181596900Y-96994643D01*
X181596900Y-96994643D02*
X181525471Y-97066071D01*
X181525471Y-97066071D02*
X181382614Y-97137500D01*
X181382614Y-97137500D02*
X181096900Y-97208928D01*
X181096900Y-97208928D02*
X180739757Y-97208928D01*
X180739757Y-97208928D02*
X180454042Y-97137500D01*
X180454042Y-97137500D02*
X180311185Y-97066071D01*
X180311185Y-97066071D02*
X180239757Y-96994643D01*
X180239757Y-96994643D02*
X180168328Y-96851785D01*
X181668328Y-94566072D02*
X180668328Y-94566072D01*
X180811185Y-94566072D02*
X180739757Y-94494643D01*
X180739757Y-94494643D02*
X180668328Y-94351786D01*
X180668328Y-94351786D02*
X180668328Y-94137500D01*
X180668328Y-94137500D02*
X180739757Y-93994643D01*
X180739757Y-93994643D02*
X180882614Y-93923215D01*
X180882614Y-93923215D02*
X181668328Y-93923215D01*
X180882614Y-93923215D02*
X180739757Y-93851786D01*
X180739757Y-93851786D02*
X180668328Y-93708929D01*
X180668328Y-93708929D02*
X180668328Y-93494643D01*
X180668328Y-93494643D02*
X180739757Y-93351786D01*
X180739757Y-93351786D02*
X180882614Y-93280357D01*
X180882614Y-93280357D02*
X181668328Y-93280357D01*
X181668328Y-92566072D02*
X180668328Y-92566072D01*
X180811185Y-92566072D02*
X180739757Y-92494643D01*
X180739757Y-92494643D02*
X180668328Y-92351786D01*
X180668328Y-92351786D02*
X180668328Y-92137500D01*
X180668328Y-92137500D02*
X180739757Y-91994643D01*
X180739757Y-91994643D02*
X180882614Y-91923215D01*
X180882614Y-91923215D02*
X181668328Y-91923215D01*
X180882614Y-91923215D02*
X180739757Y-91851786D01*
X180739757Y-91851786D02*
X180668328Y-91708929D01*
X180668328Y-91708929D02*
X180668328Y-91494643D01*
X180668328Y-91494643D02*
X180739757Y-91351786D01*
X180739757Y-91351786D02*
X180882614Y-91280357D01*
X180882614Y-91280357D02*
X181668328Y-91280357D01*
D12*
X182290000Y-124660000D02*
X182203580Y-124660000D01*
X182290000Y-71615000D02*
X182203580Y-71615000D01*
X182790000Y-124660000D02*
X182790000Y-71615000D01*
X182790000Y-124660000D02*
X182790000Y-71615000D01*
X182790000Y-124660000D02*
X182203579Y-123533496D01*
X182790000Y-124660000D02*
X183376421Y-123533496D01*
X182790000Y-71615000D02*
X183376421Y-72741504D01*
X182790000Y-71615000D02*
X182203579Y-72741504D01*
D13*
%TO.P,C4,1*%
%TO.N,+3.3V*%
X155860000Y-96100000D03*
%TO.P,C4,2*%
%TO.N,GND*%
X157460000Y-96100000D03*
%TD*%
D14*
%TO.P,C16,1*%
%TO.N,Net-(J2-Pin_2)*%
X147000000Y-107210000D03*
%TO.P,C16,2*%
%TO.N,GND*%
X147000000Y-106290000D03*
%TD*%
D15*
%TO.P,C1,1*%
%TO.N,Net-(C1-Pad1)*%
X156580000Y-93000000D03*
%TO.P,C1,2*%
%TO.N,GND*%
X157280000Y-93000000D03*
%TD*%
D16*
%TO.P,C13,1*%
%TO.N,GND*%
X157630000Y-99980000D03*
%TO.P,C13,2*%
%TO.N,Net-(IC1-ADJ{slash}BYP)*%
X157630000Y-100640000D03*
%TD*%
D15*
%TO.P,C11,1*%
%TO.N,GND*%
X159950000Y-84070000D03*
%TO.P,C11,2*%
%TO.N,/VDD_SPI*%
X159250000Y-84070000D03*
%TD*%
D14*
%TO.P,C15,1*%
%TO.N,VBUS*%
X153380000Y-107270000D03*
%TO.P,C15,2*%
%TO.N,GND*%
X153380000Y-106350000D03*
%TD*%
D17*
%TO.P,C12,1*%
%TO.N,GND*%
X159905000Y-85045000D03*
%TO.P,C12,2*%
%TO.N,/VDD_SPI*%
X159245000Y-85045000D03*
%TD*%
D18*
%TO.P,R13,1*%
%TO.N,VBUS*%
X167580000Y-117230000D03*
%TO.P,R13,2*%
%TO.N,GND*%
X167580000Y-114430000D03*
%TD*%
D19*
%TO.P,C10,1*%
%TO.N,/XTAL_N*%
X140670000Y-94970000D03*
%TO.P,C10,2*%
%TO.N,GND*%
X140670000Y-93370000D03*
%TD*%
D18*
%TO.P,R15,1*%
%TO.N,+3.3V*%
X159170000Y-97880000D03*
%TO.P,R15,2*%
%TO.N,Net-(C17-Pad1)*%
X159170000Y-95080000D03*
%TD*%
D15*
%TO.P,C5,1*%
%TO.N,+3.3V*%
X159480000Y-93000000D03*
%TO.P,C5,2*%
%TO.N,GND*%
X160180000Y-93000000D03*
%TD*%
D20*
%TO.P,S1,1,N.O._1*%
%TO.N,+3.3V*%
X173530000Y-86480000D03*
%TO.P,S1,2,C_1*%
%TO.N,Net-(S1-C_1)*%
X171030000Y-86480000D03*
%TO.P,S1,3,N.C._1*%
%TO.N,GND*%
X168530000Y-86480000D03*
%TO.P,S1,4,N.C._2*%
%TO.N,+3.3V*%
X168530000Y-96480000D03*
%TO.P,S1,5,C_2*%
%TO.N,Net-(S1-C_2)*%
X171030000Y-96480000D03*
%TO.P,S1,6,N.O._2*%
%TO.N,unconnected-(S1-N.O._2-Pad6)*%
X173530000Y-96480000D03*
%TD*%
D17*
%TO.P,C14,1*%
%TO.N,+3.3V*%
X155720000Y-100690000D03*
%TO.P,C14,2*%
%TO.N,GND*%
X155060000Y-100690000D03*
%TD*%
D21*
%TO.P,Y2,1,IN/OUT*%
%TO.N,Net-(Y2-IN{slash}OUT)*%
X145140000Y-93860000D03*
%TO.P,Y2,2,GND_1*%
%TO.N,GND*%
X143790000Y-93860000D03*
%TO.P,Y2,3,OUT/IN*%
%TO.N,/XTAL_N*%
X143790000Y-94910000D03*
%TO.P,Y2,4,GND_2*%
%TO.N,GND*%
X145140000Y-94910000D03*
%TD*%
D22*
%TO.P,J2,1,Pin_1*%
%TO.N,GND*%
X141720000Y-109800000D03*
D23*
%TO.P,J2,2,Pin_2*%
%TO.N,Net-(J2-Pin_2)*%
X141720000Y-107260000D03*
%TD*%
D18*
%TO.P,R9,1*%
%TO.N,+3.3V*%
X149790000Y-89220000D03*
%TO.P,R9,2*%
%TO.N,/I2CEXT0_SDA_in*%
X149790000Y-86420000D03*
%TD*%
D24*
%TO.P,R2,1*%
%TO.N,/SPIWP*%
X153200000Y-78660000D03*
%TO.P,R2,2*%
%TO.N,Net-(U1-SPIWP{slash}GPIO26)*%
X154800000Y-78660000D03*
%TD*%
D15*
%TO.P,C2,1*%
%TO.N,+3.3V*%
X156670000Y-94890000D03*
%TO.P,C2,2*%
%TO.N,GND*%
X157370000Y-94890000D03*
%TD*%
D25*
%TO.P,R11,1*%
%TO.N,GND*%
X163700000Y-114470000D03*
%TO.P,R11,2*%
%TO.N,Net-(J1-CC1)*%
X163700000Y-120570000D03*
%TD*%
D18*
%TO.P,R7,1*%
%TO.N,/SPICS0*%
X140770000Y-81560000D03*
%TO.P,R7,2*%
%TO.N,Net-(IC3-VCC)*%
X140770000Y-78760000D03*
%TD*%
D15*
%TO.P,C6,1*%
%TO.N,+3.3V*%
X156910000Y-85310000D03*
%TO.P,C6,2*%
%TO.N,GND*%
X156210000Y-85310000D03*
%TD*%
D26*
%TO.P,R12,1*%
%TO.N,Net-(U2-PROG)*%
X150910000Y-103660000D03*
%TO.P,R12,2*%
%TO.N,GND*%
X152510000Y-103660000D03*
%TD*%
D27*
%TO.P,IC1,1,VIN*%
%TO.N,VBUS*%
X155710000Y-104690000D03*
%TO.P,IC1,2,GND*%
%TO.N,GND*%
X156660000Y-104690000D03*
%TO.P,IC1,3,EN*%
%TO.N,VBUS*%
X157610000Y-104690000D03*
%TO.P,IC1,4,ADJ/BYP*%
%TO.N,Net-(IC1-ADJ{slash}BYP)*%
X157610000Y-102190000D03*
%TO.P,IC1,5,VOUT*%
%TO.N,+3.3V*%
X155710000Y-102190000D03*
%TD*%
D28*
%TO.P,Q1,1,D*%
%TO.N,VBUS*%
X162017000Y-101404000D03*
D29*
%TO.P,Q1,2,G*%
X168453000Y-103690000D03*
D28*
%TO.P,Q1,3,S*%
%TO.N,Net-(J2-Pin_2)*%
X162017000Y-105976000D03*
%TD*%
D14*
%TO.P,C18,1*%
%TO.N,GND*%
X146980000Y-104530000D03*
%TO.P,C18,2*%
%TO.N,Net-(U1-ANT)*%
X146980000Y-103610000D03*
%TD*%
D19*
%TO.P,C9,1*%
%TO.N,Net-(Y2-IN{slash}OUT)*%
X148220000Y-93780000D03*
%TO.P,C9,2*%
%TO.N,GND*%
X148220000Y-95380000D03*
%TD*%
D30*
%TO.P,J4,1,1*%
%TO.N,/VDD_SPI*%
X135580000Y-93570000D03*
%TO.P,J4,2,2*%
%TO.N,GND*%
X134310000Y-93570000D03*
%TO.P,J4,3,3*%
%TO.N,/FSPIQ*%
X135580000Y-92300000D03*
%TO.P,J4,4,4*%
%TO.N,/FSPID*%
X134310000Y-92300000D03*
%TO.P,J4,5,5*%
%TO.N,/FSPICLK*%
X135580000Y-91030000D03*
%TO.P,J4,6,6*%
%TO.N,/FSPICS0*%
X134310000Y-91030000D03*
%TO.P,J4,7,7*%
%TO.N,/D{slash}C*%
X135580000Y-89760000D03*
%TO.P,J4,8,8*%
%TO.N,/LCD_RST*%
X134310000Y-89760000D03*
%TO.P,J4,9,9*%
%TO.N,/LCD_BL*%
X135580000Y-88490000D03*
%TO.P,J4,10,10*%
%TO.N,/I2CEXT0_SCL_in*%
X134310000Y-88490000D03*
%TO.P,J4,11,11*%
%TO.N,/I2CEXT0_SDA_in*%
X135580000Y-87220000D03*
%TO.P,J4,12,12*%
%TO.N,/TP_INT*%
X134310000Y-87220000D03*
%TO.P,J4,13,13*%
%TO.N,/TP_RST*%
X135580000Y-85950000D03*
%TO.P,J4,14,14*%
%TO.N,unconnected-(J4-Pad14)*%
X134310000Y-85950000D03*
%TD*%
D16*
%TO.P,C17,1*%
%TO.N,Net-(C17-Pad1)*%
X158400000Y-93680000D03*
%TO.P,C17,2*%
%TO.N,Net-(U1-CHIP_PU)*%
X158400000Y-93020000D03*
%TD*%
D31*
%TO.P,IC3,1,SI*%
%TO.N,/SPID*%
X143985000Y-83102000D03*
%TO.P,IC3,2,SCK*%
%TO.N,/SPICLK*%
X145255000Y-83102000D03*
%TO.P,IC3,3,~{RESET}*%
%TO.N,/SPIHD*%
X146525000Y-83102000D03*
%TO.P,IC3,4,~{CS}*%
%TO.N,/SPICS0*%
X147795000Y-83102000D03*
%TO.P,IC3,5,~{WP}*%
%TO.N,/SPIWP*%
X147795000Y-77678000D03*
%TO.P,IC3,6,VCC*%
%TO.N,Net-(IC3-VCC)*%
X146525000Y-77678000D03*
%TO.P,IC3,7,GND*%
%TO.N,GND*%
X145255000Y-77678000D03*
%TO.P,IC3,8,SO*%
%TO.N,/SPIQ*%
X143985000Y-77678000D03*
%TD*%
D32*
%TO.P,J1,A1_B12,GND*%
%TO.N,GND*%
X157880000Y-120340000D03*
%TO.P,J1,A4_B9,VBUS*%
%TO.N,VBUS*%
X156880000Y-120340000D03*
D33*
%TO.P,J1,A5,CC1*%
%TO.N,Net-(J1-CC1)*%
X155630000Y-120340000D03*
%TO.P,J1,A6,D1+*%
%TO.N,/D1+*%
X154630000Y-120340000D03*
%TO.P,J1,A7,D1-*%
%TO.N,/D1-*%
X154130000Y-120340000D03*
%TO.P,J1,A8,SBU1*%
%TO.N,unconnected-(J1-SBU1-PadA8)*%
X153130000Y-120340000D03*
D32*
%TO.P,J1,A9_B4,VBUS*%
%TO.N,VBUS*%
X151880000Y-120340000D03*
%TO.P,J1,A12_B1,GND*%
%TO.N,GND*%
X150880000Y-120340000D03*
D33*
%TO.P,J1,B5,CC2*%
%TO.N,Net-(J1-CC2)*%
X152630000Y-120340000D03*
%TO.P,J1,B6,D2+*%
%TO.N,/D1-*%
X153630000Y-120340000D03*
%TO.P,J1,B7,D2-*%
%TO.N,/D1+*%
X155130000Y-120340000D03*
%TO.P,J1,B8,SBU2*%
%TO.N,unconnected-(J1-SBU2-PadB8)*%
X156130000Y-120340000D03*
D34*
%TO.P,J1,S1,SHELL_GND*%
%TO.N,GND*%
X160300000Y-115240000D03*
%TO.P,J1,S2,SHELL_GND*%
X148460000Y-115240000D03*
D35*
%TO.P,J1,S3,SHELL_GND*%
X159030000Y-119560000D03*
%TO.P,J1,S4,SHELL_GND*%
X149730000Y-119560000D03*
%TD*%
D36*
%TO.P,C8,1*%
%TO.N,+3.3V*%
X152470000Y-91480000D03*
%TO.P,C8,2*%
%TO.N,GND*%
X152470000Y-92040000D03*
%TD*%
D37*
%TO.P,L2,1,1*%
%TO.N,/ANT*%
X143730000Y-103660000D03*
%TO.P,L2,2,2*%
%TO.N,Net-(U1-ANT)*%
X145430000Y-103660000D03*
%TD*%
D14*
%TO.P,C19,1*%
%TO.N,GND*%
X142020000Y-104640000D03*
%TO.P,C19,2*%
%TO.N,/ANT*%
X142020000Y-103720000D03*
%TD*%
D16*
%TO.P,C7,1*%
%TO.N,+3.3V*%
X153610000Y-91390000D03*
%TO.P,C7,2*%
%TO.N,GND*%
X153610000Y-92050000D03*
%TD*%
D17*
%TO.P,C3,1*%
%TO.N,+3.3V*%
X156610000Y-93850000D03*
%TO.P,C3,2*%
%TO.N,GND*%
X157270000Y-93850000D03*
%TD*%
D18*
%TO.P,R8,1*%
%TO.N,+3.3V*%
X152630000Y-88780000D03*
%TO.P,R8,2*%
%TO.N,/I2CEXT0_SCL_in*%
X152630000Y-85980000D03*
%TD*%
D25*
%TO.P,R14,1*%
%TO.N,Net-(J1-CC2)*%
X145290000Y-120610000D03*
%TO.P,R14,2*%
%TO.N,GND*%
X145290000Y-114510000D03*
%TD*%
D38*
%TO.P,U2,1,STAT*%
%TO.N,unconnected-(U2-STAT-Pad1)*%
X148732500Y-105360000D03*
%TO.P,U2,2,V_{SS}*%
%TO.N,GND*%
X148732500Y-106310000D03*
%TO.P,U2,3,V_{BAT}*%
%TO.N,Net-(J2-Pin_2)*%
X148732500Y-107260000D03*
%TO.P,U2,4,V_{DD}*%
%TO.N,VBUS*%
X151007500Y-107260000D03*
%TO.P,U2,5,PROG*%
%TO.N,Net-(U2-PROG)*%
X151007500Y-105360000D03*
%TD*%
D24*
%TO.P,R3,1*%
%TO.N,/SPIHD*%
X153220000Y-80440000D03*
%TO.P,R3,2*%
%TO.N,Net-(U1-SPIHD{slash}GPIO28)*%
X154820000Y-80440000D03*
%TD*%
D39*
%TO.P,L1,1,1*%
%TO.N,+3.3V*%
X155220000Y-94180000D03*
%TO.P,L1,2,2*%
%TO.N,Net-(C1-Pad1)*%
X155220000Y-93630000D03*
%TD*%
D40*
%TO.P,U1,1,ANT*%
%TO.N,Net-(U1-ANT)*%
X156260000Y-91797500D03*
%TO.P,U1,2,VDDA3P3*%
%TO.N,Net-(C1-Pad1)*%
X156660000Y-91797500D03*
%TO.P,U1,3,VDDA3P3*%
X157060000Y-91797500D03*
%TO.P,U1,4,CHIP_PU*%
%TO.N,Net-(U1-CHIP_PU)*%
X157460000Y-91797500D03*
%TO.P,U1,5,VDDPST1*%
%TO.N,+3.3V*%
X157860000Y-91797500D03*
%TO.P,U1,6,GPIO0/XTAL_32K_P/ADC1_CH0*%
%TO.N,unconnected-(U1-GPIO0{slash}XTAL_32K_P{slash}ADC1_CH0-Pad6)*%
X158260000Y-91797500D03*
%TO.P,U1,7,GPIO1/XTAL_32K_N/ADC1_CH1*%
%TO.N,unconnected-(U1-GPIO1{slash}XTAL_32K_N{slash}ADC1_CH1-Pad7)*%
X158660000Y-91797500D03*
%TO.P,U1,8,GPIO2/FSPIQ/ADC1_CH2*%
%TO.N,/FSPIQ*%
X159060000Y-91797500D03*
%TO.P,U1,9,GPIO3/ADC1_CH3*%
%TO.N,unconnected-(U1-GPIO3{slash}ADC1_CH3-Pad9)*%
X159460000Y-91797500D03*
%TO.P,U1,10,MTMS/GPIO4/FSPIHD/ADC1_CH4*%
%TO.N,unconnected-(U1-MTMS{slash}GPIO4{slash}FSPIHD{slash}ADC1_CH4-Pad10)*%
X159860000Y-91797500D03*
D41*
%TO.P,U1,11,MTDI/GPIO5/FSPIWP/ADC1_CH5*%
%TO.N,unconnected-(U1-MTDI{slash}GPIO5{slash}FSPIWP{slash}ADC1_CH5-Pad11)*%
X160497500Y-91160000D03*
%TO.P,U1,12,MTCK/GPIO6/FSPICLK/ADC1_CH6*%
%TO.N,/FSPICLK*%
X160497500Y-90760000D03*
%TO.P,U1,13,MTDO/GPIO7/FSPID*%
%TO.N,/FSPID*%
X160497500Y-90360000D03*
%TO.P,U1,14,GPIO8*%
%TO.N,Net-(S1-C_2)*%
X160497500Y-89960000D03*
%TO.P,U1,15,GPIO9*%
%TO.N,Net-(S1-C_1)*%
X160497500Y-89560000D03*
%TO.P,U1,16,GPIO10*%
%TO.N,/D{slash}C*%
X160497500Y-89160000D03*
%TO.P,U1,17,GPIO11*%
%TO.N,/LCD_RST*%
X160497500Y-88760000D03*
%TO.P,U1,18,GPIO12/USB_D-*%
%TO.N,/D1-*%
X160497500Y-88360000D03*
%TO.P,U1,19,GPIO13/USB_D+*%
%TO.N,/D1+*%
X160497500Y-87960000D03*
%TO.P,U1,20,SPICS0/GPIO24*%
%TO.N,/SPICS0*%
X160497500Y-87560000D03*
D40*
%TO.P,U1,21,SPIQ/GPIO25*%
%TO.N,Net-(U1-SPIQ{slash}GPIO25)*%
X159860000Y-86922500D03*
%TO.P,U1,22,SPIWP/GPIO26*%
%TO.N,Net-(U1-SPIWP{slash}GPIO26)*%
X159460000Y-86922500D03*
%TO.P,U1,23,VDD_SPI/GPIO27*%
%TO.N,/VDD_SPI*%
X159060000Y-86922500D03*
%TO.P,U1,24,SPIHD/GPIO28*%
%TO.N,Net-(U1-SPIHD{slash}GPIO28)*%
X158660000Y-86922500D03*
%TO.P,U1,25,SPICLK/GPIO29*%
%TO.N,Net-(U1-SPICLK{slash}GPIO29)*%
X158260000Y-86922500D03*
%TO.P,U1,26,SPID/GPIO30*%
%TO.N,Net-(U1-SPID{slash}GPIO30)*%
X157860000Y-86922500D03*
%TO.P,U1,27,GPIO15*%
%TO.N,/LCD_BL*%
X157460000Y-86922500D03*
%TO.P,U1,28,VDDPST2*%
%TO.N,+3.3V*%
X157060000Y-86922500D03*
%TO.P,U1,29,U0TXD/GPIO16/FSPICS0*%
%TO.N,/FSPICS0*%
X156660000Y-86922500D03*
%TO.P,U1,30,U0RXD/GPIO17/FSPICS1*%
%TO.N,unconnected-(U1-U0RXD{slash}GPIO17{slash}FSPICS1-Pad30)*%
X156260000Y-86922500D03*
D41*
%TO.P,U1,31,GPIO18/SDIO_CMD/FSPICS2*%
%TO.N,/I2CEXT0_SCL_in*%
X155622500Y-87560000D03*
%TO.P,U1,32,GPIO19/SDIO_CLK/FSPICS3*%
%TO.N,/I2CEXT0_SDA_in*%
X155622500Y-87960000D03*
%TO.P,U1,33,GPIO20/SDIO_DATA0/FSPICS4*%
%TO.N,unconnected-(U1-GPIO20{slash}SDIO_DATA0{slash}FSPICS4-Pad33)*%
X155622500Y-88360000D03*
%TO.P,U1,34,GPIO21/SDIO_DATA1/FSPICS5*%
%TO.N,unconnected-(U1-GPIO21{slash}SDIO_DATA1{slash}FSPICS5-Pad34)*%
X155622500Y-88760000D03*
%TO.P,U1,35,GPIO22/SDIO_DATA2*%
%TO.N,/TP_INT*%
X155622500Y-89160000D03*
%TO.P,U1,36,GPIO23/SDIO_DATA3*%
%TO.N,/TP_RST*%
X155622500Y-89560000D03*
%TO.P,U1,37,VDDA1*%
%TO.N,+3.3V*%
X155622500Y-89960000D03*
%TO.P,U1,38,XTAL_N*%
%TO.N,/XTAL_N*%
X155622500Y-90360000D03*
%TO.P,U1,39,XTAL_P*%
%TO.N,/XTAL_P*%
X155622500Y-90760000D03*
%TO.P,U1,40,VDDA2*%
%TO.N,+3.3V*%
X155622500Y-91160000D03*
D42*
%TO.P,U1,41,GND*%
%TO.N,GND*%
X158060000Y-89360000D03*
%TD*%
D24*
%TO.P,R5,1*%
%TO.N,/SPID*%
X153200000Y-84100000D03*
%TO.P,R5,2*%
%TO.N,Net-(U1-SPID{slash}GPIO30)*%
X154800000Y-84100000D03*
%TD*%
D43*
%TO.P,ANT2,1,FEED*%
%TO.N,/ANT*%
X135690000Y-103840000D03*
D44*
%TO.P,ANT2,2,NC_1*%
%TO.N,unconnected-(ANT2-NC_1-Pad2)*%
X130590000Y-103640000D03*
%TO.P,ANT2,3,NC_2*%
%TO.N,unconnected-(ANT2-NC_2-Pad3)*%
X135890000Y-108940000D03*
%TO.P,ANT2,4,NC_3*%
%TO.N,unconnected-(ANT2-NC_3-Pad4)*%
X130590000Y-108940000D03*
%TD*%
D45*
%TO.P,R1,1*%
%TO.N,Net-(Y2-IN{slash}OUT)*%
X144425000Y-99150000D03*
%TO.P,R1,2*%
%TO.N,/XTAL_P*%
X150535000Y-99150000D03*
%TD*%
D24*
%TO.P,R4,1*%
%TO.N,/SPICLK*%
X153220000Y-82270000D03*
%TO.P,R4,2*%
%TO.N,Net-(U1-SPICLK{slash}GPIO29)*%
X154820000Y-82270000D03*
%TD*%
%TO.P,R6,1*%
%TO.N,/SPIQ*%
X153210000Y-77010000D03*
%TO.P,R6,2*%
%TO.N,Net-(U1-SPIQ{slash}GPIO25)*%
X154810000Y-77010000D03*
%TD*%
D46*
%TO.N,VBUS*%
X152470000Y-107940000D03*
%TO.N,+3.3V*%
X156020000Y-84160000D03*
X155680000Y-98000000D03*
X154485000Y-89815000D03*
X168570000Y-98920000D03*
X151470000Y-91530000D03*
X159790000Y-93820000D03*
X177250000Y-86450000D03*
X155700000Y-99380000D03*
%TO.N,GND*%
X159950000Y-83100000D03*
X149770000Y-120840000D03*
X154080000Y-104970000D03*
X153500000Y-93440000D03*
X155467325Y-85306866D03*
X146290000Y-112810000D03*
X158950000Y-120790000D03*
X134310000Y-97200000D03*
X157620000Y-99210000D03*
X157450000Y-97290000D03*
X158060000Y-89360000D03*
X142020000Y-96820000D03*
X145270000Y-78960000D03*
X161330000Y-93600000D03*
X145500000Y-105510000D03*
X161710000Y-112720000D03*
%TO.N,/SPICS0*%
X149310000Y-79620000D03*
X161570000Y-87140000D03*
%TO.N,/D1+*%
X163590000Y-87510000D03*
D47*
X154930000Y-119260000D03*
D46*
%TO.N,/D1-*%
X162920000Y-88110000D03*
D47*
X153930000Y-119260000D03*
D46*
%TO.N,/TP_INT*%
X154350000Y-87850000D03*
X138480000Y-83940000D03*
%TO.N,/TP_RST*%
X138380000Y-87080000D03*
%TO.N,/FSPIQ*%
X161620000Y-92400000D03*
X138340000Y-92400000D03*
%TO.N,/FSPICLK*%
X161870000Y-91460000D03*
X138290000Y-90930000D03*
%TO.N,/FSPID*%
X131480000Y-92360000D03*
X163220000Y-91780000D03*
%TO.N,/D{slash}C*%
X138350000Y-89250000D03*
X163840000Y-89530000D03*
%TO.N,/LCD_RST*%
X130390000Y-89830000D03*
X164520000Y-88710000D03*
%TO.N,/LCD_BL*%
X138390000Y-88390000D03*
X157260000Y-84120000D03*
%TO.N,/FSPICS0*%
X154670000Y-85600000D03*
X139790000Y-83010000D03*
%TO.N,VBUS*%
X167630000Y-119120000D03*
X156310000Y-118990000D03*
X152220000Y-119020000D03*
%TO.N,/VDD_SPI*%
X159290000Y-82220000D03*
X137850000Y-93580000D03*
%TD*%
D48*
%TO.N,VBUS*%
X152470000Y-107230000D02*
X152470000Y-107940000D01*
X152510000Y-107270000D02*
X153380000Y-107270000D01*
X151037500Y-107230000D02*
X151007500Y-107260000D01*
X152470000Y-107230000D02*
X151037500Y-107230000D01*
X155740000Y-107960000D02*
X152490000Y-107960000D01*
X152490000Y-107960000D02*
X152470000Y-107940000D01*
D49*
%TO.N,/ANT*%
X143730000Y-103660000D02*
X142080000Y-103660000D01*
X142020000Y-103720000D02*
X135810000Y-103720000D01*
X142080000Y-103660000D02*
X142020000Y-103720000D01*
X135810000Y-103720000D02*
X135690000Y-103840000D01*
D48*
%TO.N,Net-(C1-Pad1)*%
X155850000Y-93000000D02*
X155220000Y-93630000D01*
X156780000Y-92800000D02*
X156780000Y-91750000D01*
X156580000Y-93000000D02*
X156780000Y-92800000D01*
X156780000Y-91750000D02*
X156930000Y-91600000D01*
X156580000Y-93000000D02*
X155850000Y-93000000D01*
%TO.N,+3.3V*%
X156670000Y-95290000D02*
X155860000Y-96100000D01*
D49*
X157060000Y-86922500D02*
X157060000Y-85460000D01*
D48*
X152470000Y-91480000D02*
X151520000Y-91480000D01*
X156670000Y-93910000D02*
X156610000Y-93850000D01*
X155720000Y-99400000D02*
X155700000Y-99380000D01*
X155392500Y-91390000D02*
X155622500Y-91160000D01*
X153600000Y-88930000D02*
X152820000Y-88930000D01*
X153610000Y-91390000D02*
X155392500Y-91390000D01*
D49*
X159480000Y-93510000D02*
X159790000Y-93820000D01*
X159480000Y-93000000D02*
X159010000Y-92530000D01*
D48*
X153610000Y-91390000D02*
X152560000Y-91390000D01*
X152560000Y-91390000D02*
X152470000Y-91480000D01*
D49*
X156910000Y-85310000D02*
X156910000Y-84930000D01*
X157860000Y-92190000D02*
X157860000Y-91797500D01*
D48*
X155860000Y-97820000D02*
X155680000Y-98000000D01*
X154485000Y-89815000D02*
X154460000Y-89840000D01*
X155710000Y-102190000D02*
X155710000Y-100700000D01*
X155220000Y-94180000D02*
X155610000Y-94180000D01*
X155720000Y-100690000D02*
X155720000Y-99400000D01*
X154460000Y-89840000D02*
X150020000Y-89840000D01*
X150020000Y-89840000D02*
X150020000Y-88960000D01*
X156670000Y-94890000D02*
X156670000Y-95290000D01*
X159050000Y-98000000D02*
X159170000Y-97880000D01*
X154630000Y-89960000D02*
X155622500Y-89960000D01*
X173560000Y-86450000D02*
X173530000Y-86480000D01*
X155940000Y-93850000D02*
X156610000Y-93850000D01*
D49*
X157060000Y-85460000D02*
X156910000Y-85310000D01*
X159010000Y-92530000D02*
X158200000Y-92530000D01*
D48*
X177250000Y-86450000D02*
X173560000Y-86450000D01*
X155680000Y-98000000D02*
X159050000Y-98000000D01*
D49*
X158200000Y-92530000D02*
X157860000Y-92190000D01*
D48*
X155860000Y-96100000D02*
X155860000Y-97820000D01*
X154485000Y-89815000D02*
X153600000Y-88930000D01*
X168570000Y-98920000D02*
X168570000Y-96520000D01*
X154485000Y-89815000D02*
X154630000Y-89960000D01*
X156670000Y-94890000D02*
X156670000Y-93910000D01*
X155610000Y-94180000D02*
X155940000Y-93850000D01*
X151520000Y-91480000D02*
X151470000Y-91530000D01*
D49*
X159480000Y-93000000D02*
X159480000Y-93510000D01*
D48*
X155710000Y-100700000D02*
X155720000Y-100690000D01*
D49*
X156020000Y-84160000D02*
X156790000Y-84930000D01*
D48*
%TO.N,GND*%
X157280000Y-94800000D02*
X157370000Y-94890000D01*
X142020000Y-104640000D02*
X142550000Y-105170000D01*
X146980000Y-105490000D02*
X146980000Y-106270000D01*
X157460000Y-97280000D02*
X157450000Y-97290000D01*
X167580000Y-114430000D02*
X163740000Y-114430000D01*
D49*
X145255000Y-77678000D02*
X145255000Y-78945000D01*
D48*
X147020000Y-106310000D02*
X147000000Y-106290000D01*
X153380000Y-104910000D02*
X153380000Y-106350000D01*
X157630000Y-99220000D02*
X157620000Y-99210000D01*
D49*
X144840000Y-94910000D02*
X143790000Y-93860000D01*
D48*
X155060000Y-100690000D02*
X154120000Y-100690000D01*
D49*
X159960000Y-84065000D02*
X159960000Y-84995000D01*
X145140000Y-94910000D02*
X147750000Y-94910000D01*
D48*
X157280000Y-93000000D02*
X157280000Y-94800000D01*
X161950000Y-112720000D02*
X163700000Y-114470000D01*
X153380000Y-103680000D02*
X153380000Y-104910000D01*
X154020000Y-104910000D02*
X154080000Y-104970000D01*
X145520000Y-105490000D02*
X145500000Y-105510000D01*
X161710000Y-112720000D02*
X161950000Y-112720000D01*
X145290000Y-114510000D02*
X145290000Y-113810000D01*
D49*
X145255000Y-78945000D02*
X145270000Y-78960000D01*
X153610000Y-93330000D02*
X153500000Y-93440000D01*
D48*
X157880000Y-120340000D02*
X158500000Y-120340000D01*
D49*
X140670000Y-93370000D02*
X143300000Y-93370000D01*
D48*
X157370000Y-96010000D02*
X157460000Y-96100000D01*
D49*
X145140000Y-96810000D02*
X145150000Y-96820000D01*
X160780000Y-93600000D02*
X160180000Y-93000000D01*
D48*
X154120000Y-104930000D02*
X154080000Y-104970000D01*
X163740000Y-114430000D02*
X163700000Y-114470000D01*
D49*
X153610000Y-92050000D02*
X153610000Y-93330000D01*
D48*
X148732500Y-106310000D02*
X147020000Y-106310000D01*
D49*
X152470000Y-92410000D02*
X153500000Y-93440000D01*
D48*
X146980000Y-105490000D02*
X145520000Y-105490000D01*
D49*
X143300000Y-93370000D02*
X143790000Y-93860000D01*
X161330000Y-93600000D02*
X160780000Y-93600000D01*
D48*
X150880000Y-120340000D02*
X150270000Y-120340000D01*
X154120000Y-103510000D02*
X154120000Y-104930000D01*
D49*
X134310000Y-93570000D02*
X134310000Y-97200000D01*
X147750000Y-94910000D02*
X148220000Y-95380000D01*
X145140000Y-94910000D02*
X144840000Y-94910000D01*
D48*
X156660000Y-103510000D02*
X154120000Y-103510000D01*
D49*
X152470000Y-92040000D02*
X152470000Y-92410000D01*
X148220000Y-95380000D02*
X146780000Y-96820000D01*
D48*
X153360000Y-103660000D02*
X153380000Y-103680000D01*
D49*
X145140000Y-94910000D02*
X145140000Y-96810000D01*
D48*
X156660000Y-104690000D02*
X156660000Y-103510000D01*
D49*
X145150000Y-96820000D02*
X142020000Y-96820000D01*
D48*
X146980000Y-104530000D02*
X146980000Y-105490000D01*
D49*
X146780000Y-96820000D02*
X145150000Y-96820000D01*
D48*
X145290000Y-113810000D02*
X146290000Y-112810000D01*
X157460000Y-96100000D02*
X157460000Y-97280000D01*
X146980000Y-106270000D02*
X147000000Y-106290000D01*
X153380000Y-104910000D02*
X154020000Y-104910000D01*
X145160000Y-105170000D02*
X145500000Y-105510000D01*
X157630000Y-99980000D02*
X157630000Y-99220000D01*
X142550000Y-105170000D02*
X145160000Y-105170000D01*
X157370000Y-94890000D02*
X157370000Y-96010000D01*
X150270000Y-120340000D02*
X149770000Y-120840000D01*
X152510000Y-103660000D02*
X153360000Y-103660000D01*
X154120000Y-100690000D02*
X154120000Y-103510000D01*
D49*
X156210000Y-85310000D02*
X155330000Y-85310000D01*
X159960000Y-84065000D02*
X159960000Y-83095000D01*
D48*
X158500000Y-120340000D02*
X158950000Y-120790000D01*
D49*
%TO.N,/XTAL_N*%
X139555000Y-90415000D02*
X139555000Y-95035000D01*
X143790000Y-94910000D02*
X140770000Y-94910000D01*
X139555000Y-95035000D02*
X139620000Y-94970000D01*
X155567500Y-90415000D02*
X139555000Y-90415000D01*
X140770000Y-94910000D02*
X140640000Y-95040000D01*
X139620000Y-94970000D02*
X140670000Y-94970000D01*
D48*
%TO.N,Net-(C17-Pad1)*%
X159170000Y-94450000D02*
X158400000Y-93680000D01*
X159170000Y-95080000D02*
X159170000Y-94450000D01*
D49*
%TO.N,Net-(U1-CHIP_PU)*%
X158170000Y-93020000D02*
X158400000Y-93020000D01*
X157460000Y-91797500D02*
X157460000Y-92310000D01*
X157460000Y-92310000D02*
X158170000Y-93020000D01*
%TO.N,/SPID*%
X143985000Y-85045000D02*
X143985000Y-83102000D01*
X149860000Y-84100000D02*
X149860000Y-85150000D01*
X149860000Y-85150000D02*
X144090000Y-85150000D01*
X153200000Y-84100000D02*
X149860000Y-84100000D01*
X144090000Y-85150000D02*
X143985000Y-85045000D01*
%TO.N,/SPICLK*%
X149340000Y-82270000D02*
X149340000Y-84740000D01*
X145260000Y-84740000D02*
X145255000Y-84735000D01*
X149340000Y-84740000D02*
X145260000Y-84740000D01*
X145255000Y-84735000D02*
X145255000Y-83102000D01*
X153220000Y-82270000D02*
X149340000Y-82270000D01*
%TO.N,/SPIHD*%
X146525000Y-84325000D02*
X146525000Y-83102000D01*
X148910000Y-84380000D02*
X146580000Y-84380000D01*
X153220000Y-80440000D02*
X148910000Y-80440000D01*
X148910000Y-80440000D02*
X148910000Y-84380000D01*
X146580000Y-84380000D02*
X146525000Y-84325000D01*
%TO.N,/SPICS0*%
X147780000Y-79620000D02*
X147780000Y-81580000D01*
X161150000Y-87560000D02*
X160497500Y-87560000D01*
X147760000Y-81560000D02*
X140770000Y-81560000D01*
X147795000Y-83102000D02*
X147795000Y-81595000D01*
X147780000Y-81580000D02*
X147795000Y-81595000D01*
X149310000Y-79620000D02*
X147780000Y-79620000D01*
X161570000Y-87140000D02*
X161150000Y-87560000D01*
X147795000Y-81595000D02*
X147760000Y-81560000D01*
%TO.N,/SPIWP*%
X148948000Y-77678000D02*
X147795000Y-77678000D01*
X148980000Y-77710000D02*
X148948000Y-77678000D01*
X148980000Y-78660000D02*
X148980000Y-77710000D01*
X153200000Y-78660000D02*
X148980000Y-78660000D01*
%TO.N,/SPIQ*%
X143990000Y-76080000D02*
X143985000Y-76085000D01*
X153210000Y-76080000D02*
X143990000Y-76080000D01*
X153210000Y-77010000D02*
X153210000Y-76080000D01*
X143985000Y-76085000D02*
X143985000Y-77678000D01*
%TO.N,/D1+*%
X163590000Y-87510000D02*
X163580000Y-87500000D01*
X155130000Y-120340000D02*
X155130000Y-119260000D01*
X154630000Y-120340000D02*
X154630000Y-119270000D01*
X155130000Y-119260000D02*
X154930000Y-119260000D01*
X161660000Y-87740000D02*
X161440000Y-87960000D01*
X161440000Y-87960000D02*
X160497500Y-87960000D01*
X154920000Y-119270000D02*
X154930000Y-119260000D01*
X163580000Y-87500000D02*
X162058529Y-87500000D01*
X162058529Y-87500000D02*
X161818529Y-87740000D01*
X154630000Y-119270000D02*
X154920000Y-119270000D01*
X161818529Y-87740000D02*
X161660000Y-87740000D01*
D48*
%TO.N,Net-(J1-CC1)*%
X155630000Y-120340000D02*
X155630000Y-121890000D01*
X155630000Y-121890000D02*
X162380000Y-121890000D01*
X162380000Y-121890000D02*
X163700000Y-120570000D01*
D49*
%TO.N,/D1-*%
X154130000Y-119270000D02*
X153940000Y-119270000D01*
X153920000Y-119270000D02*
X153930000Y-119260000D01*
X153630000Y-119270000D02*
X153920000Y-119270000D01*
X160517500Y-88340000D02*
X162690000Y-88340000D01*
X160497500Y-88360000D02*
X160517500Y-88340000D01*
X153630000Y-120340000D02*
X153630000Y-119270000D01*
X154130000Y-119270000D02*
X154130000Y-120340000D01*
X162690000Y-88340000D02*
X162920000Y-88110000D01*
X153940000Y-119270000D02*
X153930000Y-119260000D01*
D48*
%TO.N,Net-(J1-CC2)*%
X152630000Y-121800000D02*
X146480000Y-121800000D01*
X152630000Y-120340000D02*
X152630000Y-121800000D01*
X146480000Y-121800000D02*
X145290000Y-120610000D01*
D49*
%TO.N,/I2CEXT0_SCL_in*%
X151470000Y-85980000D02*
X152630000Y-85980000D01*
X131870000Y-88490000D02*
X131870000Y-83540000D01*
X131870000Y-83540000D02*
X132070000Y-83340000D01*
X141250000Y-85560000D02*
X151030000Y-85560000D01*
X132070000Y-83340000D02*
X139030000Y-83340000D01*
X151040000Y-85550000D02*
X151470000Y-85980000D01*
X155622500Y-87560000D02*
X155622500Y-86492500D01*
X139030000Y-83340000D02*
X141250000Y-85560000D01*
X155622500Y-86492500D02*
X155590000Y-86460000D01*
X151030000Y-85560000D02*
X151040000Y-85550000D01*
X134310000Y-88490000D02*
X131870000Y-88490000D01*
X155590000Y-86460000D02*
X153350000Y-86460000D01*
%TO.N,/I2CEXT0_SDA_in*%
X155230000Y-87960000D02*
X154950000Y-87680000D01*
X155622500Y-87960000D02*
X155230000Y-87960000D01*
X154950000Y-87680000D02*
X154950000Y-86810000D01*
X150180000Y-86810000D02*
X149790000Y-86420000D01*
X154950000Y-86810000D02*
X150980000Y-86810000D01*
X149790000Y-86420000D02*
X136380000Y-86420000D01*
X136380000Y-86420000D02*
X135580000Y-87220000D01*
X150980000Y-86810000D02*
X150180000Y-86810000D01*
X150980000Y-86810000D02*
X150650000Y-86810000D01*
%TO.N,/TP_INT*%
X132330000Y-87230000D02*
X132340000Y-87220000D01*
X132330000Y-83940000D02*
X132330000Y-87230000D01*
X138480000Y-83940000D02*
X132330000Y-83940000D01*
X155622500Y-89160000D02*
X155270000Y-89160000D01*
X155270000Y-89160000D02*
X154350000Y-88240000D01*
X132340000Y-87220000D02*
X134310000Y-87220000D01*
X154350000Y-88240000D02*
X154350000Y-87850000D01*
%TO.N,/TP_RST*%
X155135000Y-89560000D02*
X153445000Y-87870000D01*
X153445000Y-87870000D02*
X153365000Y-87790000D01*
X153365000Y-87790000D02*
X139090000Y-87790000D01*
X139090000Y-87790000D02*
X138380000Y-87080000D01*
X155622500Y-89560000D02*
X155135000Y-89560000D01*
%TO.N,/XTAL_P*%
X150660000Y-90760000D02*
X155622500Y-90760000D01*
X150535000Y-99150000D02*
X150535000Y-90885000D01*
X150535000Y-90885000D02*
X150660000Y-90760000D01*
%TO.N,Net-(U1-SPIWP{slash}GPIO26)*%
X160550000Y-78680000D02*
X160530000Y-78660000D01*
X159460000Y-86360000D02*
X159480000Y-86340000D01*
X159460000Y-86922500D02*
X159460000Y-86360000D01*
X160550000Y-86340000D02*
X160550000Y-78680000D01*
X160530000Y-78660000D02*
X154800000Y-78660000D01*
X159480000Y-86340000D02*
X160550000Y-86340000D01*
%TO.N,Net-(U1-SPIHD{slash}GPIO28)*%
X158630000Y-80440000D02*
X154820000Y-80440000D01*
X158660000Y-86922500D02*
X158660000Y-80470000D01*
X158660000Y-80470000D02*
X158630000Y-80440000D01*
%TO.N,Net-(U1-SPICLK{slash}GPIO29)*%
X158260000Y-86922500D02*
X158260000Y-82250000D01*
X158240000Y-82270000D02*
X154820000Y-82270000D01*
X158260000Y-82250000D02*
X158240000Y-82270000D01*
%TO.N,Net-(U1-SPID{slash}GPIO30)*%
X157860000Y-83540000D02*
X157830000Y-83510000D01*
X155390000Y-83510000D02*
X154800000Y-84100000D01*
X157830000Y-83510000D02*
X155390000Y-83510000D01*
X157860000Y-86922500D02*
X157860000Y-83540000D01*
%TO.N,Net-(U1-SPIQ{slash}GPIO25)*%
X160907500Y-86922500D02*
X160907500Y-76972500D01*
X160907500Y-76972500D02*
X160870000Y-77010000D01*
X160870000Y-77010000D02*
X154810000Y-77010000D01*
X159860000Y-86922500D02*
X160907500Y-86922500D01*
D48*
%TO.N,Net-(U2-PROG)*%
X151007500Y-105360000D02*
X151007500Y-103757500D01*
X151007500Y-103757500D02*
X150910000Y-103660000D01*
D49*
%TO.N,Net-(S1-C_1)*%
X163450000Y-90180000D02*
X167330000Y-90180000D01*
X162830000Y-89560000D02*
X163450000Y-90180000D01*
X167330000Y-90180000D02*
X171030000Y-86480000D01*
X160497500Y-89560000D02*
X162830000Y-89560000D01*
%TO.N,Net-(S1-C_2)*%
X162080000Y-89960000D02*
X162680000Y-90560000D01*
X168475000Y-95355000D02*
X169905000Y-95355000D01*
X160497500Y-89960000D02*
X162080000Y-89960000D01*
X169905000Y-95355000D02*
X171030000Y-96480000D01*
X163680000Y-90560000D02*
X168475000Y-95355000D01*
X162680000Y-90560000D02*
X163680000Y-90560000D01*
%TO.N,/FSPIQ*%
X159060000Y-92140000D02*
X159320000Y-92400000D01*
X159320000Y-92400000D02*
X161620000Y-92400000D01*
X138340000Y-92400000D02*
X135680000Y-92400000D01*
X159060000Y-91797500D02*
X159060000Y-92140000D01*
X135680000Y-92400000D02*
X135580000Y-92300000D01*
%TO.N,/FSPICLK*%
X160497500Y-90760000D02*
X161170000Y-90760000D01*
X138290000Y-90930000D02*
X135680000Y-90930000D01*
X161170000Y-90760000D02*
X161870000Y-91460000D01*
X135680000Y-90930000D02*
X135580000Y-91030000D01*
%TO.N,/FSPID*%
X134250000Y-92360000D02*
X134310000Y-92300000D01*
X160497500Y-90360000D02*
X161800000Y-90360000D01*
X161800000Y-90360000D02*
X163220000Y-91780000D01*
X131480000Y-92360000D02*
X134250000Y-92360000D01*
%TO.N,/D{slash}C*%
X136090000Y-89250000D02*
X135580000Y-89760000D01*
X160497500Y-89160000D02*
X163470000Y-89160000D01*
X163470000Y-89160000D02*
X163840000Y-89530000D01*
X138350000Y-89250000D02*
X136090000Y-89250000D01*
%TO.N,/LCD_RST*%
X164540000Y-88750000D02*
X164560000Y-88730000D01*
X160577500Y-88840000D02*
X160667500Y-88750000D01*
X130460000Y-89760000D02*
X134310000Y-89760000D01*
X160667500Y-88750000D02*
X164540000Y-88750000D01*
X130390000Y-89830000D02*
X130460000Y-89760000D01*
%TO.N,/LCD_BL*%
X157460000Y-84320000D02*
X157260000Y-84120000D01*
X135680000Y-88390000D02*
X135580000Y-88490000D01*
X138390000Y-88390000D02*
X135680000Y-88390000D01*
X157460000Y-86922500D02*
X157460000Y-84320000D01*
%TO.N,/FSPICS0*%
X129470000Y-91030000D02*
X134310000Y-91030000D01*
X139790000Y-83010000D02*
X129470000Y-83010000D01*
X155020000Y-85950000D02*
X156670000Y-85950000D01*
X129470000Y-83010000D02*
X129470000Y-91030000D01*
X156670000Y-85950000D02*
X156660000Y-85960000D01*
X156660000Y-85960000D02*
X156660000Y-86922500D01*
X154670000Y-85600000D02*
X155020000Y-85950000D01*
D48*
%TO.N,VBUS*%
X157690000Y-107960000D02*
X157690000Y-106232000D01*
X156880000Y-119560000D02*
X156880000Y-120340000D01*
X171630000Y-119120000D02*
X171630000Y-106867000D01*
X157610000Y-106260000D02*
X155740000Y-106260000D01*
X158736000Y-101404000D02*
X158736000Y-106206000D01*
X171630000Y-106867000D02*
X168453000Y-103690000D01*
X155740000Y-107960000D02*
X157690000Y-107960000D01*
X157664000Y-106206000D02*
X157610000Y-106260000D01*
X162017000Y-101404000D02*
X158736000Y-101404000D01*
X157610000Y-104690000D02*
X157610000Y-106260000D01*
X151880000Y-119360000D02*
X152220000Y-119020000D01*
X155710000Y-106230000D02*
X155710000Y-104690000D01*
X156310000Y-118990000D02*
X156880000Y-119560000D01*
X167630000Y-117280000D02*
X167580000Y-117230000D01*
X167630000Y-119120000D02*
X167630000Y-117280000D01*
X167630000Y-119120000D02*
X171630000Y-119120000D01*
X155740000Y-106260000D02*
X155740000Y-107960000D01*
X151880000Y-120340000D02*
X151880000Y-119360000D01*
X155740000Y-106260000D02*
X155710000Y-106230000D01*
X157690000Y-106232000D02*
X157664000Y-106206000D01*
X158736000Y-106206000D02*
X157664000Y-106206000D01*
%TO.N,Net-(J2-Pin_2)*%
X146170000Y-107210000D02*
X144500000Y-107210000D01*
X146170000Y-107210000D02*
X146170000Y-108700000D01*
X161960000Y-108700000D02*
X162017000Y-108643000D01*
X147050000Y-107260000D02*
X147000000Y-107210000D01*
X148732500Y-107260000D02*
X147050000Y-107260000D01*
X146170000Y-108700000D02*
X161960000Y-108700000D01*
X162017000Y-108643000D02*
X162017000Y-105976000D01*
X147000000Y-107210000D02*
X146170000Y-107210000D01*
X144450000Y-107260000D02*
X144500000Y-107210000D01*
X141720000Y-107260000D02*
X144450000Y-107260000D01*
D49*
%TO.N,Net-(U1-ANT)*%
X146980000Y-103610000D02*
X145480000Y-103610000D01*
X156260000Y-91797500D02*
X155762500Y-91797500D01*
X154180000Y-99980000D02*
X152710000Y-101450000D01*
X154180000Y-92430000D02*
X154180000Y-99980000D01*
X152710000Y-101450000D02*
X147050000Y-101450000D01*
X155762500Y-91797500D02*
X155130000Y-92430000D01*
X155130000Y-92430000D02*
X154180000Y-92430000D01*
X147050000Y-101450000D02*
X146980000Y-101520000D01*
X146980000Y-101520000D02*
X146980000Y-103610000D01*
X145480000Y-103610000D02*
X145430000Y-103660000D01*
%TO.N,Net-(IC3-VCC)*%
X146525000Y-77678000D02*
X146525000Y-79615000D01*
X140785000Y-78775000D02*
X140770000Y-78760000D01*
X140785000Y-79615000D02*
X140785000Y-78775000D01*
X146525000Y-79615000D02*
X140785000Y-79615000D01*
%TO.N,Net-(Y2-IN{slash}OUT)*%
X145140000Y-93860000D02*
X147890000Y-93860000D01*
X147840000Y-99150000D02*
X144425000Y-99150000D01*
X147890000Y-93860000D02*
X148240000Y-93510000D01*
X149940000Y-93780000D02*
X149940000Y-97050000D01*
X149940000Y-97050000D02*
X147840000Y-99150000D01*
X148220000Y-93780000D02*
X149940000Y-93780000D01*
%TO.N,/VDD_SPI*%
X159250000Y-82260000D02*
X159290000Y-82220000D01*
X159060000Y-86190000D02*
X159250000Y-86000000D01*
X159250000Y-86000000D02*
X159250000Y-84070000D01*
X159250000Y-84070000D02*
X159250000Y-82260000D01*
X137850000Y-93580000D02*
X135590000Y-93580000D01*
X135590000Y-93580000D02*
X135580000Y-93570000D01*
X159060000Y-86922500D02*
X159060000Y-86190000D01*
D48*
%TO.N,Net-(IC1-ADJ{slash}BYP)*%
X157610000Y-100660000D02*
X157630000Y-100640000D01*
X157610000Y-102190000D02*
X157610000Y-100660000D01*
%TD*%
M02*
