%TF.GenerationSoftware,KiCad,Pcbnew,7.0.6*%
%TF.CreationDate,2023-08-07T11:18:25-05:00*%
%TF.ProjectId,mainv2,6d61696e-7632-42e6-9b69-6361645f7063,rev?*%
%TF.SameCoordinates,Original*%
%TF.FileFunction,Paste,Top*%
%TF.FilePolarity,Positive*%
%FSLAX46Y46*%
G04 Gerber Fmt 4.6, Leading zero omitted, Abs format (unit mm)*
G04 Created by KiCad (PCBNEW 7.0.6) date 2023-08-07 11:18:25*
%MOMM*%
%LPD*%
G01*
G04 APERTURE LIST*
G04 Aperture macros list*
%AMRoundRect*
0 Rectangle with rounded corners*
0 $1 Rounding radius*
0 $2 $3 $4 $5 $6 $7 $8 $9 X,Y pos of 4 corners*
0 Add a 4 corners polygon primitive as box body*
4,1,4,$2,$3,$4,$5,$6,$7,$8,$9,$2,$3,0*
0 Add four circle primitives for the rounded corners*
1,1,$1+$1,$2,$3*
1,1,$1+$1,$4,$5*
1,1,$1+$1,$6,$7*
1,1,$1+$1,$8,$9*
0 Add four rect primitives between the rounded corners*
20,1,$1+$1,$2,$3,$4,$5,0*
20,1,$1+$1,$4,$5,$6,$7,0*
20,1,$1+$1,$6,$7,$8,$9,0*
20,1,$1+$1,$8,$9,$2,$3,0*%
G04 Aperture macros list end*
%ADD10R,0.540000X0.940000*%
%ADD11R,0.620000X0.600000*%
%ADD12R,0.420000X0.420000*%
%ADD13R,0.420000X0.460000*%
%ADD14R,0.460000X0.420000*%
%ADD15R,1.750000X1.100000*%
%ADD16R,1.000000X0.950000*%
%ADD17R,0.850000X0.750000*%
%ADD18R,0.800000X1.000000*%
%ADD19R,3.400000X1.100000*%
%ADD20R,0.800000X0.950000*%
%ADD21R,0.600000X1.150000*%
%ADD22R,2.286000X1.397000*%
%ADD23R,6.180000X5.690000*%
%ADD24R,0.650000X1.525000*%
%ADD25R,0.800000X1.400000*%
%ADD26R,0.300000X1.400000*%
%ADD27R,0.420000X0.400000*%
%ADD28R,1.200000X1.450000*%
%ADD29RoundRect,0.150000X-0.512500X-0.150000X0.512500X-0.150000X0.512500X0.150000X-0.512500X0.150000X0*%
%ADD30R,0.300000X0.250000*%
%ADD31RoundRect,0.242500X0.242500X-0.242500X0.242500X0.242500X-0.242500X0.242500X-0.242500X-0.242500X0*%
%ADD32RoundRect,0.062500X0.062500X-0.350000X0.062500X0.350000X-0.062500X0.350000X-0.062500X-0.350000X0*%
%ADD33RoundRect,0.062500X0.350000X-0.062500X0.350000X0.062500X-0.350000X0.062500X-0.350000X-0.062500X0*%
%ADD34R,1.700000X1.700000*%
%ADD35R,1.600000X1.600000*%
%ADD36R,1.070000X3.420000*%
G04 APERTURE END LIST*
D10*
%TO.C,C4*%
X155860000Y-96100000D03*
X157460000Y-96100000D03*
%TD*%
D11*
%TO.C,C16*%
X147000000Y-107210000D03*
X147000000Y-106290000D03*
%TD*%
D12*
%TO.C,C1*%
X156580000Y-93000000D03*
X157280000Y-93000000D03*
%TD*%
D13*
%TO.C,C13*%
X157630000Y-99980000D03*
X157630000Y-100640000D03*
%TD*%
D12*
%TO.C,C11*%
X159950000Y-84070000D03*
X159250000Y-84070000D03*
%TD*%
D11*
%TO.C,C15*%
X153380000Y-107270000D03*
X153380000Y-106350000D03*
%TD*%
D14*
%TO.C,C12*%
X159905000Y-85045000D03*
X159245000Y-85045000D03*
%TD*%
D15*
%TO.C,R13*%
X167580000Y-117230000D03*
X167580000Y-114430000D03*
%TD*%
D16*
%TO.C,C10*%
X140670000Y-94970000D03*
X140670000Y-93370000D03*
%TD*%
D15*
%TO.C,R15*%
X159170000Y-97880000D03*
X159170000Y-95080000D03*
%TD*%
D12*
%TO.C,C5*%
X159480000Y-93000000D03*
X160180000Y-93000000D03*
%TD*%
D14*
%TO.C,C14*%
X155720000Y-100690000D03*
X155060000Y-100690000D03*
%TD*%
D17*
%TO.C,Y2*%
X145140000Y-93860000D03*
X143790000Y-93860000D03*
X143790000Y-94910000D03*
X145140000Y-94910000D03*
%TD*%
D15*
%TO.C,R9*%
X149790000Y-89220000D03*
X149790000Y-86420000D03*
%TD*%
D18*
%TO.C,R2*%
X153200000Y-78660000D03*
X154800000Y-78660000D03*
%TD*%
D12*
%TO.C,C2*%
X156670000Y-94890000D03*
X157370000Y-94890000D03*
%TD*%
D19*
%TO.C,R11*%
X163700000Y-114470000D03*
X163700000Y-120570000D03*
%TD*%
D15*
%TO.C,R7*%
X140770000Y-81560000D03*
X140770000Y-78760000D03*
%TD*%
D12*
%TO.C,C6*%
X156910000Y-85310000D03*
X156210000Y-85310000D03*
%TD*%
D20*
%TO.C,R12*%
X150910000Y-103660000D03*
X152510000Y-103660000D03*
%TD*%
D21*
%TO.C,IC1*%
X155710000Y-104690000D03*
X156660000Y-104690000D03*
X157610000Y-104690000D03*
X157610000Y-102190000D03*
X155710000Y-102190000D03*
%TD*%
D22*
%TO.C,Q1*%
X162017000Y-101404000D03*
D23*
X168453000Y-103690000D03*
D22*
X162017000Y-105976000D03*
%TD*%
D11*
%TO.C,C18*%
X146980000Y-104530000D03*
X146980000Y-103610000D03*
%TD*%
D16*
%TO.C,C9*%
X148220000Y-93780000D03*
X148220000Y-95380000D03*
%TD*%
D13*
%TO.C,C17*%
X158400000Y-93680000D03*
X158400000Y-93020000D03*
%TD*%
D24*
%TO.C,IC3*%
X143985000Y-83102000D03*
X145255000Y-83102000D03*
X146525000Y-83102000D03*
X147795000Y-83102000D03*
X147795000Y-77678000D03*
X146525000Y-77678000D03*
X145255000Y-77678000D03*
X143985000Y-77678000D03*
%TD*%
D25*
%TO.C,J1*%
X157880000Y-120340000D03*
X156880000Y-120340000D03*
D26*
X155630000Y-120340000D03*
X154630000Y-120340000D03*
X154130000Y-120340000D03*
X153130000Y-120340000D03*
D25*
X151880000Y-120340000D03*
X150880000Y-120340000D03*
D26*
X152630000Y-120340000D03*
X153630000Y-120340000D03*
X155130000Y-120340000D03*
X156130000Y-120340000D03*
%TD*%
D27*
%TO.C,C8*%
X152470000Y-91480000D03*
X152470000Y-92040000D03*
%TD*%
D28*
%TO.C,L2*%
X143730000Y-103660000D03*
X145430000Y-103660000D03*
%TD*%
D11*
%TO.C,C19*%
X142020000Y-104640000D03*
X142020000Y-103720000D03*
%TD*%
D13*
%TO.C,C7*%
X153610000Y-91390000D03*
X153610000Y-92050000D03*
%TD*%
D14*
%TO.C,C3*%
X156610000Y-93850000D03*
X157270000Y-93850000D03*
%TD*%
D15*
%TO.C,R8*%
X152630000Y-88780000D03*
X152630000Y-85980000D03*
%TD*%
D19*
%TO.C,R14*%
X145290000Y-120610000D03*
X145290000Y-114510000D03*
%TD*%
D29*
%TO.C,U2*%
X148732500Y-105360000D03*
X148732500Y-106310000D03*
X148732500Y-107260000D03*
X151007500Y-107260000D03*
X151007500Y-105360000D03*
%TD*%
D18*
%TO.C,R3*%
X153220000Y-80440000D03*
X154820000Y-80440000D03*
%TD*%
D30*
%TO.C,L1*%
X155220000Y-94180000D03*
X155220000Y-93630000D03*
%TD*%
D31*
%TO.C,U1*%
X156860000Y-90560000D03*
X158060000Y-90560000D03*
X159260000Y-90560000D03*
X156860000Y-89360000D03*
X158060000Y-89360000D03*
X159260000Y-89360000D03*
X156860000Y-88160000D03*
X158060000Y-88160000D03*
X159260000Y-88160000D03*
D32*
X156260000Y-91797500D03*
X156660000Y-91797500D03*
X157060000Y-91797500D03*
X157460000Y-91797500D03*
X157860000Y-91797500D03*
X158260000Y-91797500D03*
X158660000Y-91797500D03*
X159060000Y-91797500D03*
X159460000Y-91797500D03*
X159860000Y-91797500D03*
D33*
X160497500Y-91160000D03*
X160497500Y-90760000D03*
X160497500Y-90360000D03*
X160497500Y-89960000D03*
X160497500Y-89560000D03*
X160497500Y-89160000D03*
X160497500Y-88760000D03*
X160497500Y-88360000D03*
X160497500Y-87960000D03*
X160497500Y-87560000D03*
D32*
X159860000Y-86922500D03*
X159460000Y-86922500D03*
X159060000Y-86922500D03*
X158660000Y-86922500D03*
X158260000Y-86922500D03*
X157860000Y-86922500D03*
X157460000Y-86922500D03*
X157060000Y-86922500D03*
X156660000Y-86922500D03*
X156260000Y-86922500D03*
D33*
X155622500Y-87560000D03*
X155622500Y-87960000D03*
X155622500Y-88360000D03*
X155622500Y-88760000D03*
X155622500Y-89160000D03*
X155622500Y-89560000D03*
X155622500Y-89960000D03*
X155622500Y-90360000D03*
X155622500Y-90760000D03*
X155622500Y-91160000D03*
%TD*%
D18*
%TO.C,R5*%
X153200000Y-84100000D03*
X154800000Y-84100000D03*
%TD*%
D34*
%TO.C,ANT2*%
X135690000Y-103840000D03*
D35*
X130590000Y-103640000D03*
X135890000Y-108940000D03*
X130590000Y-108940000D03*
%TD*%
D36*
%TO.C,R1*%
X144425000Y-99150000D03*
X150535000Y-99150000D03*
%TD*%
D18*
%TO.C,R4*%
X153220000Y-82270000D03*
X154820000Y-82270000D03*
%TD*%
%TO.C,R6*%
X153210000Y-77010000D03*
X154810000Y-77010000D03*
%TD*%
M02*
