%TF.GenerationSoftware,KiCad,Pcbnew,7.0.5*%
%TF.CreationDate,2023-08-06T14:28:47-05:00*%
%TF.ProjectId,mainv2,6d61696e-7632-42e6-9b69-6361645f7063,rev?*%
%TF.SameCoordinates,Original*%
%TF.FileFunction,Copper,L2,Inr*%
%TF.FilePolarity,Positive*%
%FSLAX46Y46*%
G04 Gerber Fmt 4.6, Leading zero omitted, Abs format (unit mm)*
G04 Created by KiCad (PCBNEW 7.0.5) date 2023-08-06 14:28:47*
%MOMM*%
%LPD*%
G01*
G04 APERTURE LIST*
%TA.AperFunction,NonConductor*%
%ADD10C,0.200000*%
%TD*%
%TA.AperFunction,ComponentPad*%
%ADD11C,1.950000*%
%TD*%
%TA.AperFunction,ComponentPad*%
%ADD12R,1.700000X1.700000*%
%TD*%
%TA.AperFunction,ComponentPad*%
%ADD13O,1.700000X1.700000*%
%TD*%
%TA.AperFunction,ComponentPad*%
%ADD14C,1.143000*%
%TD*%
%TA.AperFunction,ComponentPad*%
%ADD15O,0.900000X1.600000*%
%TD*%
%TA.AperFunction,ComponentPad*%
%ADD16O,0.900000X1.300000*%
%TD*%
%TA.AperFunction,ViaPad*%
%ADD17C,0.800000*%
%TD*%
%TA.AperFunction,Conductor*%
%ADD18C,0.300000*%
%TD*%
%TA.AperFunction,Conductor*%
%ADD19C,0.500000*%
%TD*%
G04 APERTURE END LIST*
D10*
X125660000Y-71590000D02*
X182780000Y-71590000D01*
X182780000Y-124670000D01*
X125660000Y-124670000D01*
X125660000Y-71590000D01*
D11*
%TO.N,+3.3V*%
%TO.C,S1*%
X173530000Y-86480000D03*
%TO.N,Net-(S1-C_1)*%
X171030000Y-86480000D03*
%TO.N,GND*%
X168530000Y-86480000D03*
%TO.N,+3.3V*%
X168530000Y-96480000D03*
%TO.N,Net-(S1-C_2)*%
X171030000Y-96480000D03*
%TO.N,unconnected-(S1-N.O._2-Pad6)*%
X173530000Y-96480000D03*
%TD*%
D12*
%TO.N,GND*%
%TO.C,J2*%
X141720000Y-109800000D03*
D13*
%TO.N,Net-(J2-Pin_2)*%
X141720000Y-107260000D03*
%TD*%
D14*
%TO.N,/VDD_SPI*%
%TO.C,J4*%
X135580000Y-93570000D03*
%TO.N,GND*%
X134310000Y-93570000D03*
%TO.N,/FSPIQ*%
X135580000Y-92300000D03*
%TO.N,/FSPID*%
X134310000Y-92300000D03*
%TO.N,/FSPICLK*%
X135580000Y-91030000D03*
%TO.N,/FSPICS0*%
X134310000Y-91030000D03*
%TO.N,/D{slash}C*%
X135580000Y-89760000D03*
%TO.N,/LCD_RST*%
X134310000Y-89760000D03*
%TO.N,/LCD_BL*%
X135580000Y-88490000D03*
%TO.N,/I2CEXT0_SCL_in*%
X134310000Y-88490000D03*
%TO.N,/I2CEXT0_SDA_in*%
X135580000Y-87220000D03*
%TO.N,/TP_INT*%
X134310000Y-87220000D03*
%TO.N,/TP_RST*%
X135580000Y-85950000D03*
%TO.N,unconnected-(J4-Pad14)*%
X134310000Y-85950000D03*
%TD*%
D15*
%TO.N,GND*%
%TO.C,J1*%
X160300000Y-115240000D03*
X148460000Y-115240000D03*
D16*
X159030000Y-119560000D03*
X149730000Y-119560000D03*
%TD*%
D17*
%TO.N,+3.3V*%
X155680000Y-98000000D03*
X154485000Y-89815000D03*
X168570000Y-98920000D03*
X177250000Y-86450000D03*
%TO.N,GND*%
X159950000Y-83100000D03*
X149770000Y-120840000D03*
X154080000Y-104970000D03*
X153500000Y-93440000D03*
X155467325Y-85306866D03*
X146290000Y-112810000D03*
X158950000Y-120790000D03*
X134310000Y-97200000D03*
X157620000Y-99210000D03*
X157450000Y-97290000D03*
X158060000Y-89360000D03*
X142020000Y-96820000D03*
X145270000Y-78960000D03*
X161330000Y-93600000D03*
X145500000Y-105510000D03*
X161710000Y-112720000D03*
%TO.N,/SPICS0*%
X149310000Y-79620000D03*
%TO.N,/TP_INT*%
X138480000Y-83940000D03*
%TO.N,/TP_RST*%
X138380000Y-87080000D03*
%TO.N,/FSPIQ*%
X138340000Y-92400000D03*
%TO.N,/FSPICLK*%
X138290000Y-90930000D03*
%TO.N,/FSPID*%
X131480000Y-92360000D03*
%TO.N,/D{slash}C*%
X138350000Y-89250000D03*
%TO.N,/LCD_RST*%
X130390000Y-89830000D03*
%TO.N,/LCD_BL*%
X138390000Y-88390000D03*
%TO.N,/FSPICS0*%
X139790000Y-83010000D03*
%TO.N,VBUS*%
X167630000Y-119120000D03*
%TO.N,/VDD_SPI*%
X137850000Y-93580000D03*
%TD*%
D18*
%TO.N,GND*%
X161330000Y-93600000D02*
X161140000Y-93600000D01*
X153500000Y-93440000D02*
X153600000Y-93440000D01*
D19*
X157620000Y-97460000D02*
X157450000Y-97290000D01*
X160300000Y-115240000D02*
X160300000Y-114130000D01*
X149730000Y-120800000D02*
X149770000Y-120840000D01*
X159030000Y-120710000D02*
X158950000Y-120790000D01*
%TD*%
%TA.AperFunction,Conductor*%
%TO.N,GND*%
G36*
X182622539Y-71710185D02*
G01*
X182668294Y-71762989D01*
X182679500Y-71814500D01*
X182679500Y-124445500D01*
X182659815Y-124512539D01*
X182607011Y-124558294D01*
X182555500Y-124569500D01*
X125884500Y-124569500D01*
X125817461Y-124549815D01*
X125771706Y-124497011D01*
X125760500Y-124445500D01*
X125760500Y-119310000D01*
X148780000Y-119310000D01*
X149405000Y-119310000D01*
X149405000Y-119810000D01*
X148780186Y-119810000D01*
X148794647Y-119952221D01*
X148852484Y-120136561D01*
X148852489Y-120136571D01*
X148946251Y-120305498D01*
X148946256Y-120305505D01*
X149072107Y-120452105D01*
X149224890Y-120570368D01*
X149224894Y-120570370D01*
X149398363Y-120655460D01*
X149480000Y-120676596D01*
X149480000Y-120074482D01*
X149564993Y-120145801D01*
X149672694Y-120185000D01*
X149787306Y-120185000D01*
X149895007Y-120145801D01*
X149980000Y-120074482D01*
X149980000Y-120680470D01*
X150150524Y-120617315D01*
X150150531Y-120617312D01*
X150314503Y-120515107D01*
X150454534Y-120381997D01*
X150454535Y-120381996D01*
X150564913Y-120223413D01*
X150641106Y-120045862D01*
X150680000Y-119856606D01*
X150680000Y-119785530D01*
X150699685Y-119718491D01*
X150752489Y-119672736D01*
X150820185Y-119662591D01*
X150842280Y-119665500D01*
X150842287Y-119665500D01*
X150917713Y-119665500D01*
X150917720Y-119665500D01*
X151030236Y-119650687D01*
X151170233Y-119592698D01*
X151290451Y-119500451D01*
X151382698Y-119380233D01*
X151440687Y-119240236D01*
X151460466Y-119090000D01*
X151440687Y-118939764D01*
X151382698Y-118799767D01*
X151290451Y-118679549D01*
X151203558Y-118612873D01*
X151162358Y-118556448D01*
X151158203Y-118486702D01*
X151192415Y-118425781D01*
X151254133Y-118393029D01*
X151279047Y-118390500D01*
X151943945Y-118390500D01*
X152010984Y-118410185D01*
X152056739Y-118462989D01*
X152066683Y-118532147D01*
X152037658Y-118595703D01*
X152010987Y-118618812D01*
X151968632Y-118646033D01*
X151921950Y-118676033D01*
X151837118Y-118773937D01*
X151837117Y-118773938D01*
X151783302Y-118891774D01*
X151764867Y-119020000D01*
X151783302Y-119148225D01*
X151828972Y-119248226D01*
X151837118Y-119266063D01*
X151921951Y-119363967D01*
X152030931Y-119434004D01*
X152155225Y-119470499D01*
X152155227Y-119470500D01*
X152155228Y-119470500D01*
X152284773Y-119470500D01*
X152284773Y-119470499D01*
X152409069Y-119434004D01*
X152518049Y-119363967D01*
X152602882Y-119266063D01*
X152605651Y-119260000D01*
X153624864Y-119260000D01*
X153643266Y-119364362D01*
X153643268Y-119364368D01*
X153696249Y-119456134D01*
X153696250Y-119456135D01*
X153696252Y-119456138D01*
X153713367Y-119470499D01*
X153777431Y-119524256D01*
X153777433Y-119524257D01*
X153818449Y-119539184D01*
X153877014Y-119560500D01*
X153877017Y-119560500D01*
X153982983Y-119560500D01*
X153982986Y-119560500D01*
X154065020Y-119530642D01*
X154082566Y-119524257D01*
X154082568Y-119524256D01*
X154082567Y-119524256D01*
X154163748Y-119456138D01*
X154216734Y-119364363D01*
X154235136Y-119260000D01*
X154624864Y-119260000D01*
X154643266Y-119364362D01*
X154643268Y-119364368D01*
X154696249Y-119456134D01*
X154696250Y-119456135D01*
X154696252Y-119456138D01*
X154713367Y-119470499D01*
X154777431Y-119524256D01*
X154777433Y-119524257D01*
X154818449Y-119539184D01*
X154877014Y-119560500D01*
X154877017Y-119560500D01*
X154982983Y-119560500D01*
X154982986Y-119560500D01*
X155065020Y-119530642D01*
X155082566Y-119524257D01*
X155082568Y-119524256D01*
X155082568Y-119524255D01*
X155163748Y-119456138D01*
X155216734Y-119364363D01*
X155235136Y-119260000D01*
X155216734Y-119155637D01*
X155212455Y-119148226D01*
X155163750Y-119063865D01*
X155163749Y-119063864D01*
X155163748Y-119063862D01*
X155136069Y-119040636D01*
X155082568Y-118995743D01*
X155082566Y-118995742D01*
X155000533Y-118965886D01*
X154982986Y-118959500D01*
X154877014Y-118959500D01*
X154877011Y-118959500D01*
X154877011Y-118959501D01*
X154777433Y-118995742D01*
X154777431Y-118995743D01*
X154696254Y-119063860D01*
X154696249Y-119063865D01*
X154643268Y-119155631D01*
X154643266Y-119155637D01*
X154624864Y-119259999D01*
X154624864Y-119260000D01*
X154235136Y-119260000D01*
X154216734Y-119155637D01*
X154212455Y-119148226D01*
X154163750Y-119063865D01*
X154163749Y-119063864D01*
X154163748Y-119063862D01*
X154136069Y-119040636D01*
X154082568Y-118995743D01*
X154082566Y-118995742D01*
X154000533Y-118965886D01*
X153982986Y-118959500D01*
X153877014Y-118959500D01*
X153877011Y-118959500D01*
X153877011Y-118959501D01*
X153777433Y-118995742D01*
X153777431Y-118995743D01*
X153696254Y-119063860D01*
X153696249Y-119063865D01*
X153643268Y-119155631D01*
X153643266Y-119155637D01*
X153624864Y-119259999D01*
X153624864Y-119260000D01*
X152605651Y-119260000D01*
X152656697Y-119148226D01*
X152675133Y-119020000D01*
X152656697Y-118891774D01*
X152602882Y-118773937D01*
X152518049Y-118676033D01*
X152429014Y-118618814D01*
X152383261Y-118566012D01*
X152373317Y-118496854D01*
X152402341Y-118433298D01*
X152461119Y-118395523D01*
X152496055Y-118390500D01*
X155987263Y-118390500D01*
X156054302Y-118410185D01*
X156100057Y-118462989D01*
X156110001Y-118532147D01*
X156080976Y-118595703D01*
X156054302Y-118618816D01*
X156011950Y-118646033D01*
X155927118Y-118743937D01*
X155927117Y-118743938D01*
X155873302Y-118861774D01*
X155854867Y-118990000D01*
X155873302Y-119118225D01*
X155890385Y-119155631D01*
X155927118Y-119236063D01*
X156011951Y-119333967D01*
X156120931Y-119404004D01*
X156223108Y-119434005D01*
X156245225Y-119440499D01*
X156245227Y-119440500D01*
X156245228Y-119440500D01*
X156374773Y-119440500D01*
X156374773Y-119440499D01*
X156499069Y-119404004D01*
X156608049Y-119333967D01*
X156692882Y-119236063D01*
X156746697Y-119118226D01*
X156765133Y-118990000D01*
X156746697Y-118861774D01*
X156692882Y-118743937D01*
X156608049Y-118646033D01*
X156565697Y-118618815D01*
X156519943Y-118566012D01*
X156509999Y-118496853D01*
X156539024Y-118433298D01*
X156597802Y-118395523D01*
X156632737Y-118390500D01*
X157480953Y-118390500D01*
X157547992Y-118410185D01*
X157593747Y-118462989D01*
X157603691Y-118532147D01*
X157574666Y-118595703D01*
X157556446Y-118612869D01*
X157469549Y-118679549D01*
X157397122Y-118773938D01*
X157377300Y-118799770D01*
X157319313Y-118939763D01*
X157319312Y-118939765D01*
X157299534Y-119089999D01*
X157299534Y-119090000D01*
X157319312Y-119240234D01*
X157319313Y-119240236D01*
X157371432Y-119366063D01*
X157377302Y-119380233D01*
X157469549Y-119500451D01*
X157589767Y-119592698D01*
X157729764Y-119650687D01*
X157842280Y-119665500D01*
X157842287Y-119665500D01*
X157917713Y-119665500D01*
X157917720Y-119665500D01*
X157939814Y-119662591D01*
X158008848Y-119673356D01*
X158061105Y-119719735D01*
X158080000Y-119785530D01*
X158080000Y-119808176D01*
X158094647Y-119952221D01*
X158152484Y-120136561D01*
X158152489Y-120136571D01*
X158246251Y-120305498D01*
X158246256Y-120305505D01*
X158372107Y-120452105D01*
X158524890Y-120570368D01*
X158524894Y-120570370D01*
X158698363Y-120655460D01*
X158780000Y-120676596D01*
X158780000Y-120074482D01*
X158864993Y-120145801D01*
X158972694Y-120185000D01*
X159087306Y-120185000D01*
X159195007Y-120145801D01*
X159280000Y-120074482D01*
X159280000Y-120680470D01*
X159450524Y-120617315D01*
X159450531Y-120617312D01*
X159614503Y-120515107D01*
X159754534Y-120381997D01*
X159754535Y-120381996D01*
X159864913Y-120223413D01*
X159941106Y-120045862D01*
X159980000Y-119856606D01*
X159980000Y-119810000D01*
X159355000Y-119810000D01*
X159355000Y-119310000D01*
X159979813Y-119310000D01*
X159979813Y-119309999D01*
X159965352Y-119167778D01*
X159950362Y-119120000D01*
X167174867Y-119120000D01*
X167193302Y-119248225D01*
X167232460Y-119333967D01*
X167247118Y-119366063D01*
X167331951Y-119463967D01*
X167440931Y-119534004D01*
X167565225Y-119570499D01*
X167565227Y-119570500D01*
X167565228Y-119570500D01*
X167694773Y-119570500D01*
X167694773Y-119570499D01*
X167819069Y-119534004D01*
X167928049Y-119463967D01*
X168012882Y-119366063D01*
X168066697Y-119248226D01*
X168085133Y-119120000D01*
X168066697Y-118991774D01*
X168012882Y-118873937D01*
X167928049Y-118776033D01*
X167819069Y-118705996D01*
X167819065Y-118705994D01*
X167819064Y-118705994D01*
X167694774Y-118669500D01*
X167694772Y-118669500D01*
X167565228Y-118669500D01*
X167565226Y-118669500D01*
X167440935Y-118705994D01*
X167440932Y-118705995D01*
X167440931Y-118705996D01*
X167391129Y-118738002D01*
X167331950Y-118776033D01*
X167247118Y-118873937D01*
X167247117Y-118873938D01*
X167193302Y-118991774D01*
X167174867Y-119120000D01*
X159950362Y-119120000D01*
X159907515Y-118983438D01*
X159907510Y-118983428D01*
X159813748Y-118814501D01*
X159813743Y-118814494D01*
X159687892Y-118667894D01*
X159535109Y-118549631D01*
X159535105Y-118549629D01*
X159361642Y-118464542D01*
X159361643Y-118464542D01*
X159280000Y-118443403D01*
X159280000Y-119045517D01*
X159195007Y-118974199D01*
X159087306Y-118935000D01*
X158972694Y-118935000D01*
X158864993Y-118974199D01*
X158780000Y-119045517D01*
X158780000Y-118494037D01*
X158799685Y-118426998D01*
X158852489Y-118381243D01*
X158856494Y-118379498D01*
X158885251Y-118367587D01*
X158927587Y-118325251D01*
X158950500Y-118269936D01*
X158950500Y-118254457D01*
X158954725Y-118222364D01*
X158962727Y-118192497D01*
X158952955Y-118173949D01*
X158950500Y-118149397D01*
X158950500Y-115638176D01*
X159350000Y-115638176D01*
X159364647Y-115782221D01*
X159422484Y-115966561D01*
X159422489Y-115966571D01*
X159516251Y-116135498D01*
X159516256Y-116135505D01*
X159642107Y-116282105D01*
X159794890Y-116400368D01*
X159794894Y-116400370D01*
X159968363Y-116485460D01*
X160050000Y-116506596D01*
X160050000Y-115904482D01*
X160134993Y-115975801D01*
X160242694Y-116015000D01*
X160357306Y-116015000D01*
X160465007Y-115975801D01*
X160550000Y-115904482D01*
X160550000Y-116510470D01*
X160720524Y-116447315D01*
X160720531Y-116447312D01*
X160884503Y-116345107D01*
X161024534Y-116211997D01*
X161024535Y-116211996D01*
X161134913Y-116053413D01*
X161211106Y-115875862D01*
X161250000Y-115686606D01*
X161250000Y-115490000D01*
X160625000Y-115490000D01*
X160625000Y-114990000D01*
X161250000Y-114990000D01*
X161250000Y-114841823D01*
X161235352Y-114697778D01*
X161177515Y-114513438D01*
X161177510Y-114513428D01*
X161083748Y-114344501D01*
X161083743Y-114344494D01*
X160957892Y-114197894D01*
X160805109Y-114079631D01*
X160805105Y-114079629D01*
X160631642Y-113994542D01*
X160631643Y-113994542D01*
X160550000Y-113973403D01*
X160550000Y-114575517D01*
X160465007Y-114504199D01*
X160357306Y-114465000D01*
X160242694Y-114465000D01*
X160134993Y-114504199D01*
X160050000Y-114575517D01*
X160050000Y-113969528D01*
X159879472Y-114032685D01*
X159879468Y-114032687D01*
X159715496Y-114134892D01*
X159575465Y-114268002D01*
X159575464Y-114268003D01*
X159465086Y-114426586D01*
X159388893Y-114604137D01*
X159350000Y-114793393D01*
X159350000Y-114990000D01*
X159975000Y-114990000D01*
X159975000Y-115490000D01*
X159350000Y-115490000D01*
X159350000Y-115638176D01*
X158950500Y-115638176D01*
X158950500Y-114281568D01*
X158970185Y-114214529D01*
X158986815Y-114193891D01*
X159282520Y-113898185D01*
X159282733Y-113898044D01*
X159300379Y-113880384D01*
X159300383Y-113880383D01*
X159300447Y-113880225D01*
X159300542Y-113880000D01*
X159300383Y-113879617D01*
X159299999Y-113879457D01*
X159275319Y-113879464D01*
X159275144Y-113879500D01*
X149484856Y-113879500D01*
X149484680Y-113879464D01*
X149460000Y-113879457D01*
X149459617Y-113879617D01*
X149459457Y-113880000D01*
X149459458Y-113880001D01*
X149459610Y-113880366D01*
X149459617Y-113880383D01*
X149459618Y-113880383D01*
X149477272Y-113898009D01*
X149477265Y-113898015D01*
X149477391Y-113898099D01*
X149773181Y-114193888D01*
X149806666Y-114255211D01*
X149809500Y-114281569D01*
X149809500Y-118149398D01*
X149797067Y-118191736D01*
X149805275Y-118222366D01*
X149809500Y-118254457D01*
X149809500Y-118269936D01*
X149832413Y-118325251D01*
X149832414Y-118325253D01*
X149874746Y-118367585D01*
X149874747Y-118367585D01*
X149874749Y-118367587D01*
X149903453Y-118379477D01*
X149957855Y-118423316D01*
X149979921Y-118489610D01*
X149980000Y-118494037D01*
X149980000Y-119045517D01*
X149895007Y-118974199D01*
X149787306Y-118935000D01*
X149672694Y-118935000D01*
X149564993Y-118974199D01*
X149480000Y-119045517D01*
X149480000Y-118439528D01*
X149309472Y-118502685D01*
X149309468Y-118502687D01*
X149145496Y-118604892D01*
X149005465Y-118738002D01*
X149005464Y-118738003D01*
X148895086Y-118896586D01*
X148818893Y-119074137D01*
X148780000Y-119263393D01*
X148780000Y-119310000D01*
X125760500Y-119310000D01*
X125760500Y-115638176D01*
X147510000Y-115638176D01*
X147524647Y-115782221D01*
X147582484Y-115966561D01*
X147582489Y-115966571D01*
X147676251Y-116135498D01*
X147676256Y-116135505D01*
X147802107Y-116282105D01*
X147954890Y-116400368D01*
X147954894Y-116400370D01*
X148128363Y-116485460D01*
X148210000Y-116506596D01*
X148210000Y-115904482D01*
X148294993Y-115975801D01*
X148402694Y-116015000D01*
X148517306Y-116015000D01*
X148625007Y-115975801D01*
X148710000Y-115904482D01*
X148710000Y-116510470D01*
X148880524Y-116447315D01*
X148880531Y-116447312D01*
X149044503Y-116345107D01*
X149184534Y-116211997D01*
X149184535Y-116211996D01*
X149294913Y-116053413D01*
X149371106Y-115875862D01*
X149410000Y-115686606D01*
X149410000Y-115490000D01*
X148785000Y-115490000D01*
X148785000Y-114990000D01*
X149410000Y-114990000D01*
X149410000Y-114841823D01*
X149395352Y-114697778D01*
X149337515Y-114513438D01*
X149337510Y-114513428D01*
X149243748Y-114344501D01*
X149243743Y-114344494D01*
X149117892Y-114197894D01*
X148965109Y-114079631D01*
X148965105Y-114079629D01*
X148791642Y-113994542D01*
X148791643Y-113994542D01*
X148710000Y-113973403D01*
X148710000Y-114575517D01*
X148625007Y-114504199D01*
X148517306Y-114465000D01*
X148402694Y-114465000D01*
X148294993Y-114504199D01*
X148210000Y-114575517D01*
X148210000Y-113969528D01*
X148039472Y-114032685D01*
X148039468Y-114032687D01*
X147875496Y-114134892D01*
X147735465Y-114268002D01*
X147735464Y-114268003D01*
X147625086Y-114426586D01*
X147548893Y-114604137D01*
X147510000Y-114793393D01*
X147510000Y-114990000D01*
X148135000Y-114990000D01*
X148135000Y-115490000D01*
X147510000Y-115490000D01*
X147510000Y-115638176D01*
X125760500Y-115638176D01*
X125760500Y-110697844D01*
X140370000Y-110697844D01*
X140376401Y-110757372D01*
X140376403Y-110757379D01*
X140426645Y-110892086D01*
X140426649Y-110892093D01*
X140512809Y-111007187D01*
X140512812Y-111007190D01*
X140627906Y-111093350D01*
X140627913Y-111093354D01*
X140762620Y-111143596D01*
X140762627Y-111143598D01*
X140822155Y-111149999D01*
X140822172Y-111150000D01*
X141470000Y-111150000D01*
X141470000Y-110235501D01*
X141577685Y-110284680D01*
X141684237Y-110300000D01*
X141755763Y-110300000D01*
X141862315Y-110284680D01*
X141970000Y-110235501D01*
X141970000Y-111150000D01*
X142617828Y-111150000D01*
X142617844Y-111149999D01*
X142677372Y-111143598D01*
X142677379Y-111143596D01*
X142812086Y-111093354D01*
X142812093Y-111093350D01*
X142927187Y-111007190D01*
X142927190Y-111007187D01*
X143013350Y-110892093D01*
X143013354Y-110892086D01*
X143063596Y-110757379D01*
X143063598Y-110757372D01*
X143069999Y-110697844D01*
X143070000Y-110697827D01*
X143070000Y-110050000D01*
X142153686Y-110050000D01*
X142179493Y-110009844D01*
X142220000Y-109871889D01*
X142220000Y-109728111D01*
X142179493Y-109590156D01*
X142153686Y-109550000D01*
X143070000Y-109550000D01*
X143070000Y-108902172D01*
X143069999Y-108902155D01*
X143063598Y-108842627D01*
X143063596Y-108842620D01*
X143013354Y-108707913D01*
X143013350Y-108707906D01*
X142927190Y-108592812D01*
X142927187Y-108592809D01*
X142812093Y-108506649D01*
X142812086Y-108506645D01*
X142677379Y-108456403D01*
X142677372Y-108456401D01*
X142617844Y-108450000D01*
X141970000Y-108450000D01*
X141970000Y-109364498D01*
X141862315Y-109315320D01*
X141755763Y-109300000D01*
X141684237Y-109300000D01*
X141577685Y-109315320D01*
X141470000Y-109364498D01*
X141470000Y-108450000D01*
X140822155Y-108450000D01*
X140762627Y-108456401D01*
X140762620Y-108456403D01*
X140627913Y-108506645D01*
X140627906Y-108506649D01*
X140512812Y-108592809D01*
X140512809Y-108592812D01*
X140426649Y-108707906D01*
X140426645Y-108707913D01*
X140376403Y-108842620D01*
X140376401Y-108842627D01*
X140370000Y-108902155D01*
X140370000Y-109550000D01*
X141286314Y-109550000D01*
X141260507Y-109590156D01*
X141220000Y-109728111D01*
X141220000Y-109871889D01*
X141260507Y-110009844D01*
X141286314Y-110050000D01*
X140370000Y-110050000D01*
X140370000Y-110697844D01*
X125760500Y-110697844D01*
X125760500Y-107303933D01*
X140965668Y-107303933D01*
X140981058Y-107391210D01*
X140996135Y-107476711D01*
X141065623Y-107637804D01*
X141065624Y-107637806D01*
X141065626Y-107637809D01*
X141107413Y-107693938D01*
X141170390Y-107778530D01*
X141304786Y-107891302D01*
X141382488Y-107930325D01*
X141461562Y-107970038D01*
X141461563Y-107970038D01*
X141461567Y-107970040D01*
X141632279Y-108010500D01*
X141632282Y-108010500D01*
X141763701Y-108010500D01*
X141763709Y-108010500D01*
X141894255Y-107995241D01*
X142046031Y-107940000D01*
X152014867Y-107940000D01*
X152033302Y-108068225D01*
X152087117Y-108186061D01*
X152087118Y-108186063D01*
X152171951Y-108283967D01*
X152280931Y-108354004D01*
X152405225Y-108390499D01*
X152405227Y-108390500D01*
X152405228Y-108390500D01*
X152534773Y-108390500D01*
X152534773Y-108390499D01*
X152659069Y-108354004D01*
X152768049Y-108283967D01*
X152852882Y-108186063D01*
X152906697Y-108068226D01*
X152925133Y-107940000D01*
X152906697Y-107811774D01*
X152852882Y-107693937D01*
X152768049Y-107596033D01*
X152659069Y-107525996D01*
X152659065Y-107525994D01*
X152659064Y-107525994D01*
X152534774Y-107489500D01*
X152534772Y-107489500D01*
X152405228Y-107489500D01*
X152405226Y-107489500D01*
X152280935Y-107525994D01*
X152280932Y-107525995D01*
X152280931Y-107525996D01*
X152229677Y-107558934D01*
X152171950Y-107596033D01*
X152087118Y-107693937D01*
X152087117Y-107693938D01*
X152033302Y-107811774D01*
X152014867Y-107940000D01*
X142046031Y-107940000D01*
X142059117Y-107935237D01*
X142205696Y-107838830D01*
X142326092Y-107711218D01*
X142413812Y-107559281D01*
X142464130Y-107391210D01*
X142474331Y-107216065D01*
X142443865Y-107043289D01*
X142374377Y-106882196D01*
X142269610Y-106741470D01*
X142197747Y-106681170D01*
X142135214Y-106628698D01*
X142135212Y-106628697D01*
X141978437Y-106549961D01*
X141978433Y-106549960D01*
X141807721Y-106509500D01*
X141676291Y-106509500D01*
X141571854Y-106521707D01*
X141545743Y-106524759D01*
X141545740Y-106524760D01*
X141380884Y-106584762D01*
X141380880Y-106584764D01*
X141234306Y-106681167D01*
X141234305Y-106681168D01*
X141113910Y-106808778D01*
X141026188Y-106960718D01*
X140975870Y-107128789D01*
X140975869Y-107128794D01*
X140965668Y-107303933D01*
X125760500Y-107303933D01*
X125760500Y-99380000D01*
X155244867Y-99380000D01*
X155263302Y-99508225D01*
X155317117Y-99626061D01*
X155317118Y-99626063D01*
X155401951Y-99723967D01*
X155510931Y-99794004D01*
X155635225Y-99830499D01*
X155635227Y-99830500D01*
X155635228Y-99830500D01*
X155764773Y-99830500D01*
X155764773Y-99830499D01*
X155889069Y-99794004D01*
X155998049Y-99723967D01*
X156082882Y-99626063D01*
X156136697Y-99508226D01*
X156155133Y-99380000D01*
X156136697Y-99251774D01*
X156082882Y-99133937D01*
X155998049Y-99036033D01*
X155889069Y-98965996D01*
X155889065Y-98965994D01*
X155889064Y-98965994D01*
X155764774Y-98929500D01*
X155764772Y-98929500D01*
X155635228Y-98929500D01*
X155635226Y-98929500D01*
X155510935Y-98965994D01*
X155510932Y-98965995D01*
X155510931Y-98965996D01*
X155459677Y-98998934D01*
X155401950Y-99036033D01*
X155317118Y-99133937D01*
X155317117Y-99133938D01*
X155263302Y-99251774D01*
X155244867Y-99380000D01*
X125760500Y-99380000D01*
X125760500Y-98920000D01*
X168114867Y-98920000D01*
X168133302Y-99048225D01*
X168172446Y-99133937D01*
X168187118Y-99166063D01*
X168271951Y-99263967D01*
X168380931Y-99334004D01*
X168505225Y-99370499D01*
X168505227Y-99370500D01*
X168505228Y-99370500D01*
X168634773Y-99370500D01*
X168634773Y-99370499D01*
X168759069Y-99334004D01*
X168868049Y-99263967D01*
X168952882Y-99166063D01*
X169006697Y-99048226D01*
X169025133Y-98920000D01*
X169006697Y-98791774D01*
X168952882Y-98673937D01*
X168868049Y-98576033D01*
X168759069Y-98505996D01*
X168759065Y-98505994D01*
X168759064Y-98505994D01*
X168634774Y-98469500D01*
X168634772Y-98469500D01*
X168505228Y-98469500D01*
X168505226Y-98469500D01*
X168380935Y-98505994D01*
X168380932Y-98505995D01*
X168380931Y-98505996D01*
X168329677Y-98538934D01*
X168271950Y-98576033D01*
X168187118Y-98673937D01*
X168187117Y-98673938D01*
X168133302Y-98791774D01*
X168114867Y-98920000D01*
X125760500Y-98920000D01*
X125760500Y-98000000D01*
X155224867Y-98000000D01*
X155243302Y-98128225D01*
X155297117Y-98246061D01*
X155297118Y-98246063D01*
X155381951Y-98343967D01*
X155490931Y-98414004D01*
X155615225Y-98450499D01*
X155615227Y-98450500D01*
X155615228Y-98450500D01*
X155744773Y-98450500D01*
X155744773Y-98450499D01*
X155869069Y-98414004D01*
X155978049Y-98343967D01*
X156062882Y-98246063D01*
X156116697Y-98128226D01*
X156135133Y-98000000D01*
X156116697Y-97871774D01*
X156062882Y-97753937D01*
X155978049Y-97656033D01*
X155869069Y-97585996D01*
X155869065Y-97585994D01*
X155869064Y-97585994D01*
X155744774Y-97549500D01*
X155744772Y-97549500D01*
X155615228Y-97549500D01*
X155615226Y-97549500D01*
X155490935Y-97585994D01*
X155490932Y-97585995D01*
X155490931Y-97585996D01*
X155439677Y-97618934D01*
X155381950Y-97656033D01*
X155297118Y-97753937D01*
X155297117Y-97753938D01*
X155243302Y-97871774D01*
X155224867Y-98000000D01*
X125760500Y-98000000D01*
X125760500Y-96574645D01*
X167629500Y-96574645D01*
X167668855Y-96759802D01*
X167668857Y-96759807D01*
X167745848Y-96932729D01*
X167745851Y-96932734D01*
X167857111Y-97085870D01*
X167857112Y-97085871D01*
X167997784Y-97212533D01*
X168161716Y-97307179D01*
X168341744Y-97365674D01*
X168482808Y-97380500D01*
X168482812Y-97380500D01*
X168577188Y-97380500D01*
X168577192Y-97380500D01*
X168718256Y-97365674D01*
X168898284Y-97307179D01*
X169062216Y-97212533D01*
X169202888Y-97085871D01*
X169314151Y-96932730D01*
X169391144Y-96759803D01*
X169430500Y-96574646D01*
X169430500Y-96574645D01*
X170129500Y-96574645D01*
X170168855Y-96759802D01*
X170168857Y-96759807D01*
X170245848Y-96932729D01*
X170245851Y-96932734D01*
X170357111Y-97085870D01*
X170357112Y-97085871D01*
X170497784Y-97212533D01*
X170661716Y-97307179D01*
X170841744Y-97365674D01*
X170982808Y-97380500D01*
X170982812Y-97380500D01*
X171077188Y-97380500D01*
X171077192Y-97380500D01*
X171218256Y-97365674D01*
X171398284Y-97307179D01*
X171562216Y-97212533D01*
X171702888Y-97085871D01*
X171814151Y-96932730D01*
X171891144Y-96759803D01*
X171930500Y-96574646D01*
X171930500Y-96574645D01*
X172629500Y-96574645D01*
X172668855Y-96759802D01*
X172668857Y-96759807D01*
X172745848Y-96932729D01*
X172745851Y-96932734D01*
X172857111Y-97085870D01*
X172857112Y-97085871D01*
X172997784Y-97212533D01*
X173161716Y-97307179D01*
X173341744Y-97365674D01*
X173482808Y-97380500D01*
X173482812Y-97380500D01*
X173577188Y-97380500D01*
X173577192Y-97380500D01*
X173718256Y-97365674D01*
X173898284Y-97307179D01*
X174062216Y-97212533D01*
X174202888Y-97085871D01*
X174314151Y-96932730D01*
X174391144Y-96759803D01*
X174430500Y-96574646D01*
X174430500Y-96385354D01*
X174391144Y-96200197D01*
X174314151Y-96027270D01*
X174314148Y-96027265D01*
X174202888Y-95874129D01*
X174202887Y-95874129D01*
X174062216Y-95747467D01*
X173898284Y-95652821D01*
X173898277Y-95652818D01*
X173718259Y-95594327D01*
X173718256Y-95594326D01*
X173577192Y-95579500D01*
X173482808Y-95579500D01*
X173341744Y-95594326D01*
X173341741Y-95594326D01*
X173341740Y-95594327D01*
X173161722Y-95652818D01*
X173161715Y-95652821D01*
X172997785Y-95747466D01*
X172857111Y-95874129D01*
X172745851Y-96027265D01*
X172745848Y-96027270D01*
X172668857Y-96200192D01*
X172668855Y-96200197D01*
X172629500Y-96385354D01*
X172629500Y-96574645D01*
X171930500Y-96574645D01*
X171930500Y-96385354D01*
X171891144Y-96200197D01*
X171814151Y-96027270D01*
X171814148Y-96027265D01*
X171702888Y-95874129D01*
X171702888Y-95874128D01*
X171562216Y-95747467D01*
X171398284Y-95652821D01*
X171398277Y-95652818D01*
X171218259Y-95594327D01*
X171218256Y-95594326D01*
X171077192Y-95579500D01*
X170982808Y-95579500D01*
X170841744Y-95594326D01*
X170841741Y-95594326D01*
X170841740Y-95594327D01*
X170661722Y-95652818D01*
X170661715Y-95652821D01*
X170497785Y-95747466D01*
X170357111Y-95874129D01*
X170245851Y-96027265D01*
X170245848Y-96027270D01*
X170168857Y-96200192D01*
X170168855Y-96200197D01*
X170129500Y-96385354D01*
X170129500Y-96574645D01*
X169430500Y-96574645D01*
X169430500Y-96385354D01*
X169391144Y-96200197D01*
X169314151Y-96027270D01*
X169314148Y-96027265D01*
X169202888Y-95874129D01*
X169062216Y-95747467D01*
X168898284Y-95652821D01*
X168898277Y-95652818D01*
X168718259Y-95594327D01*
X168718256Y-95594326D01*
X168577192Y-95579500D01*
X168482808Y-95579500D01*
X168341744Y-95594326D01*
X168341741Y-95594326D01*
X168341740Y-95594327D01*
X168161722Y-95652818D01*
X168161715Y-95652821D01*
X167997785Y-95747466D01*
X167857111Y-95874129D01*
X167745851Y-96027265D01*
X167745848Y-96027270D01*
X167668857Y-96200192D01*
X167668855Y-96200197D01*
X167629500Y-96385354D01*
X167629500Y-96574645D01*
X125760500Y-96574645D01*
X125760500Y-93570000D01*
X133233910Y-93570000D01*
X133252231Y-93767730D01*
X133306575Y-93958726D01*
X133306580Y-93958739D01*
X133393383Y-94133061D01*
X133393384Y-94133061D01*
X133953542Y-93572902D01*
X133951320Y-93599721D01*
X133980405Y-93714574D01*
X134045206Y-93813760D01*
X134138702Y-93886531D01*
X134250761Y-93925000D01*
X134308553Y-93925000D01*
X133750014Y-94483537D01*
X133750015Y-94483538D01*
X133830341Y-94533274D01*
X133830350Y-94533278D01*
X134015511Y-94605009D01*
X134015516Y-94605010D01*
X134210713Y-94641500D01*
X134409287Y-94641500D01*
X134604483Y-94605010D01*
X134604488Y-94605009D01*
X134789651Y-94533277D01*
X134789655Y-94533275D01*
X134869984Y-94483537D01*
X134311448Y-93925000D01*
X134339418Y-93925000D01*
X134426862Y-93910408D01*
X134531061Y-93854019D01*
X134611304Y-93766852D01*
X134658896Y-93658352D01*
X134666013Y-93572460D01*
X135226614Y-94133061D01*
X135285416Y-94123470D01*
X135352831Y-94131291D01*
X135421933Y-94159915D01*
X135540312Y-94175500D01*
X135540319Y-94175500D01*
X135619681Y-94175500D01*
X135619688Y-94175500D01*
X135738067Y-94159915D01*
X135885362Y-94098903D01*
X136011848Y-94001848D01*
X136108903Y-93875363D01*
X136169915Y-93728067D01*
X136189408Y-93580000D01*
X137394867Y-93580000D01*
X137413302Y-93708225D01*
X137422364Y-93728067D01*
X137467118Y-93826063D01*
X137551951Y-93923967D01*
X137660931Y-93994004D01*
X137785225Y-94030499D01*
X137785227Y-94030500D01*
X137785228Y-94030500D01*
X137914773Y-94030500D01*
X137914773Y-94030499D01*
X138039069Y-93994004D01*
X138148049Y-93923967D01*
X138232882Y-93826063D01*
X138235651Y-93820000D01*
X159334867Y-93820000D01*
X159353302Y-93948225D01*
X159377792Y-94001849D01*
X159407118Y-94066063D01*
X159491951Y-94163967D01*
X159600931Y-94234004D01*
X159725225Y-94270499D01*
X159725227Y-94270500D01*
X159725228Y-94270500D01*
X159854773Y-94270500D01*
X159854773Y-94270499D01*
X159979069Y-94234004D01*
X160088049Y-94163967D01*
X160172882Y-94066063D01*
X160226697Y-93948226D01*
X160245133Y-93820000D01*
X160226697Y-93691774D01*
X160172882Y-93573937D01*
X160088049Y-93476033D01*
X159979069Y-93405996D01*
X159979065Y-93405994D01*
X159979064Y-93405994D01*
X159854774Y-93369500D01*
X159854772Y-93369500D01*
X159725228Y-93369500D01*
X159725226Y-93369500D01*
X159600935Y-93405994D01*
X159600932Y-93405995D01*
X159600931Y-93405996D01*
X159549677Y-93438934D01*
X159491950Y-93476033D01*
X159407118Y-93573937D01*
X159407117Y-93573938D01*
X159353302Y-93691774D01*
X159334867Y-93820000D01*
X138235651Y-93820000D01*
X138286697Y-93708226D01*
X138305133Y-93580000D01*
X138286697Y-93451774D01*
X138232882Y-93333937D01*
X138148049Y-93236033D01*
X138039069Y-93165996D01*
X138039065Y-93165994D01*
X138039064Y-93165994D01*
X137914774Y-93129500D01*
X137914772Y-93129500D01*
X137785228Y-93129500D01*
X137785226Y-93129500D01*
X137660935Y-93165994D01*
X137660932Y-93165995D01*
X137660931Y-93165996D01*
X137609677Y-93198934D01*
X137551950Y-93236033D01*
X137467118Y-93333937D01*
X137467117Y-93333938D01*
X137413302Y-93451774D01*
X137394867Y-93580000D01*
X136189408Y-93580000D01*
X136190725Y-93570000D01*
X136169915Y-93411933D01*
X136108903Y-93264638D01*
X136011848Y-93138152D01*
X135885362Y-93041097D01*
X135878914Y-93036149D01*
X135880133Y-93034559D01*
X135839382Y-92991820D01*
X135826158Y-92923213D01*
X135852126Y-92858348D01*
X135879506Y-92834623D01*
X135878914Y-92833851D01*
X135956907Y-92774005D01*
X136011848Y-92731848D01*
X136108903Y-92605363D01*
X136169915Y-92458067D01*
X136177560Y-92400000D01*
X137884867Y-92400000D01*
X137903302Y-92528225D01*
X137957117Y-92646061D01*
X137957118Y-92646063D01*
X138041951Y-92743967D01*
X138150931Y-92814004D01*
X138221155Y-92834623D01*
X138275225Y-92850499D01*
X138275227Y-92850500D01*
X138275228Y-92850500D01*
X138404773Y-92850500D01*
X138404773Y-92850499D01*
X138529069Y-92814004D01*
X138638049Y-92743967D01*
X138722882Y-92646063D01*
X138776697Y-92528226D01*
X138795133Y-92400000D01*
X161164867Y-92400000D01*
X161183302Y-92528225D01*
X161237117Y-92646061D01*
X161237118Y-92646063D01*
X161321951Y-92743967D01*
X161430931Y-92814004D01*
X161501155Y-92834623D01*
X161555225Y-92850499D01*
X161555227Y-92850500D01*
X161555228Y-92850500D01*
X161684773Y-92850500D01*
X161684773Y-92850499D01*
X161809069Y-92814004D01*
X161918049Y-92743967D01*
X162002882Y-92646063D01*
X162056697Y-92528226D01*
X162075133Y-92400000D01*
X162056697Y-92271774D01*
X162002882Y-92153937D01*
X161947265Y-92089751D01*
X161918242Y-92026196D01*
X161928186Y-91957038D01*
X161973941Y-91904234D01*
X162006042Y-91889573D01*
X162059069Y-91874004D01*
X162168049Y-91803967D01*
X162188816Y-91780000D01*
X162764867Y-91780000D01*
X162783302Y-91908225D01*
X162825155Y-91999868D01*
X162837118Y-92026063D01*
X162921951Y-92123967D01*
X163030931Y-92194004D01*
X163155225Y-92230499D01*
X163155227Y-92230500D01*
X163155228Y-92230500D01*
X163284773Y-92230500D01*
X163284773Y-92230499D01*
X163409069Y-92194004D01*
X163518049Y-92123967D01*
X163602882Y-92026063D01*
X163656697Y-91908226D01*
X163675133Y-91780000D01*
X163656697Y-91651774D01*
X163626937Y-91586610D01*
X170879500Y-91586610D01*
X170918679Y-91796198D01*
X170921689Y-91803967D01*
X170992206Y-91985996D01*
X170995702Y-91995019D01*
X171107948Y-92176302D01*
X171251592Y-92333871D01*
X171251593Y-92333872D01*
X171421746Y-92462367D01*
X171612606Y-92557403D01*
X171612608Y-92557403D01*
X171612611Y-92557405D01*
X171817690Y-92615756D01*
X171976806Y-92630500D01*
X171976810Y-92630500D01*
X172083190Y-92630500D01*
X172083194Y-92630500D01*
X172242310Y-92615756D01*
X172447389Y-92557405D01*
X172447393Y-92557403D01*
X172447394Y-92557403D01*
X172638253Y-92462367D01*
X172638253Y-92462366D01*
X172638255Y-92462366D01*
X172808407Y-92333872D01*
X172952052Y-92176302D01*
X173064298Y-91995019D01*
X173141321Y-91796198D01*
X173180500Y-91586610D01*
X173180500Y-91373390D01*
X173141321Y-91163802D01*
X173064298Y-90964981D01*
X172952052Y-90783698D01*
X172808407Y-90626128D01*
X172808406Y-90626127D01*
X172638253Y-90497632D01*
X172447393Y-90402596D01*
X172242310Y-90344244D01*
X172242309Y-90344244D01*
X172083194Y-90329500D01*
X171976806Y-90329500D01*
X171849513Y-90341295D01*
X171817689Y-90344244D01*
X171612607Y-90402596D01*
X171612605Y-90402596D01*
X171421746Y-90497632D01*
X171251593Y-90626127D01*
X171107947Y-90783699D01*
X170995702Y-90964980D01*
X170995701Y-90964982D01*
X170918680Y-91163799D01*
X170918679Y-91163802D01*
X170879500Y-91373390D01*
X170879500Y-91586610D01*
X163626937Y-91586610D01*
X163602882Y-91533937D01*
X163518049Y-91436033D01*
X163409069Y-91365996D01*
X163409065Y-91365994D01*
X163409064Y-91365994D01*
X163284774Y-91329500D01*
X163284772Y-91329500D01*
X163155228Y-91329500D01*
X163155226Y-91329500D01*
X163030935Y-91365994D01*
X163030932Y-91365995D01*
X163030931Y-91365996D01*
X162979677Y-91398934D01*
X162921950Y-91436033D01*
X162837118Y-91533937D01*
X162837117Y-91533938D01*
X162783302Y-91651774D01*
X162764867Y-91780000D01*
X162188816Y-91780000D01*
X162252882Y-91706063D01*
X162306697Y-91588226D01*
X162325133Y-91460000D01*
X162306697Y-91331774D01*
X162252882Y-91213937D01*
X162168049Y-91116033D01*
X162059069Y-91045996D01*
X162059065Y-91045994D01*
X162059064Y-91045994D01*
X161934774Y-91009500D01*
X161934772Y-91009500D01*
X161805228Y-91009500D01*
X161805226Y-91009500D01*
X161680935Y-91045994D01*
X161680932Y-91045995D01*
X161680931Y-91045996D01*
X161661901Y-91058226D01*
X161571950Y-91116033D01*
X161487118Y-91213937D01*
X161487117Y-91213938D01*
X161433302Y-91331774D01*
X161414867Y-91460000D01*
X161433302Y-91588225D01*
X161462982Y-91653213D01*
X161487118Y-91706063D01*
X161517963Y-91741660D01*
X161542733Y-91770247D01*
X161571757Y-91833803D01*
X161561813Y-91902961D01*
X161516058Y-91955765D01*
X161483955Y-91970426D01*
X161430934Y-91985994D01*
X161321950Y-92056033D01*
X161237118Y-92153937D01*
X161237117Y-92153938D01*
X161183302Y-92271774D01*
X161164867Y-92400000D01*
X138795133Y-92400000D01*
X138776697Y-92271774D01*
X138722882Y-92153937D01*
X138638049Y-92056033D01*
X138529069Y-91985996D01*
X138529065Y-91985994D01*
X138529064Y-91985994D01*
X138404774Y-91949500D01*
X138404772Y-91949500D01*
X138275228Y-91949500D01*
X138275226Y-91949500D01*
X138150935Y-91985994D01*
X138150932Y-91985995D01*
X138150931Y-91985996D01*
X138104192Y-92016033D01*
X138041950Y-92056033D01*
X137957118Y-92153937D01*
X137957117Y-92153938D01*
X137903302Y-92271774D01*
X137884867Y-92400000D01*
X136177560Y-92400000D01*
X136190725Y-92300000D01*
X136169915Y-92141933D01*
X136108903Y-91994638D01*
X136011848Y-91868152D01*
X135891833Y-91776062D01*
X135878914Y-91766149D01*
X135880133Y-91764559D01*
X135839382Y-91721820D01*
X135826158Y-91653213D01*
X135852126Y-91588348D01*
X135879506Y-91564623D01*
X135878914Y-91563851D01*
X135923028Y-91530000D01*
X151014867Y-91530000D01*
X151033302Y-91658225D01*
X151071406Y-91741660D01*
X151087118Y-91776063D01*
X151171951Y-91873967D01*
X151280931Y-91944004D01*
X151405225Y-91980499D01*
X151405227Y-91980500D01*
X151405228Y-91980500D01*
X151534773Y-91980500D01*
X151534773Y-91980499D01*
X151659069Y-91944004D01*
X151768049Y-91873967D01*
X151852882Y-91776063D01*
X151906697Y-91658226D01*
X151925133Y-91530000D01*
X151906697Y-91401774D01*
X151852882Y-91283937D01*
X151768049Y-91186033D01*
X151659069Y-91115996D01*
X151659065Y-91115994D01*
X151659064Y-91115994D01*
X151534774Y-91079500D01*
X151534772Y-91079500D01*
X151405228Y-91079500D01*
X151405226Y-91079500D01*
X151280935Y-91115994D01*
X151280932Y-91115995D01*
X151280931Y-91115996D01*
X151229677Y-91148934D01*
X151171950Y-91186033D01*
X151087118Y-91283937D01*
X151087117Y-91283938D01*
X151033302Y-91401774D01*
X151014867Y-91530000D01*
X135923028Y-91530000D01*
X135929909Y-91524720D01*
X136011848Y-91461848D01*
X136108903Y-91335363D01*
X136169915Y-91188067D01*
X136190725Y-91030000D01*
X136177560Y-90930000D01*
X137834867Y-90930000D01*
X137853302Y-91058225D01*
X137907117Y-91176061D01*
X137907118Y-91176063D01*
X137991951Y-91273967D01*
X138100931Y-91344004D01*
X138175824Y-91365994D01*
X138225225Y-91380499D01*
X138225227Y-91380500D01*
X138225228Y-91380500D01*
X138354773Y-91380500D01*
X138354773Y-91380499D01*
X138479069Y-91344004D01*
X138588049Y-91273967D01*
X138672882Y-91176063D01*
X138726697Y-91058226D01*
X138745133Y-90930000D01*
X138726697Y-90801774D01*
X138672882Y-90683937D01*
X138588049Y-90586033D01*
X138479069Y-90515996D01*
X138479065Y-90515994D01*
X138479064Y-90515994D01*
X138354774Y-90479500D01*
X138354772Y-90479500D01*
X138225228Y-90479500D01*
X138225226Y-90479500D01*
X138100935Y-90515994D01*
X138100932Y-90515995D01*
X138100931Y-90515996D01*
X138049677Y-90548934D01*
X137991950Y-90586033D01*
X137907118Y-90683937D01*
X137907117Y-90683938D01*
X137853302Y-90801774D01*
X137834867Y-90930000D01*
X136177560Y-90930000D01*
X136169915Y-90871933D01*
X136108903Y-90724638D01*
X136011848Y-90598152D01*
X135904779Y-90515996D01*
X135878914Y-90496149D01*
X135880133Y-90494559D01*
X135839382Y-90451820D01*
X135826158Y-90383213D01*
X135852126Y-90318348D01*
X135879506Y-90294623D01*
X135878914Y-90293851D01*
X135963425Y-90229004D01*
X136011848Y-90191848D01*
X136108903Y-90065363D01*
X136169915Y-89918067D01*
X136183484Y-89815000D01*
X154029867Y-89815000D01*
X154048302Y-89943225D01*
X154101407Y-90059506D01*
X154102118Y-90061063D01*
X154186951Y-90158967D01*
X154295931Y-90229004D01*
X154347018Y-90244004D01*
X154420225Y-90265499D01*
X154420227Y-90265500D01*
X154420228Y-90265500D01*
X154549773Y-90265500D01*
X154549773Y-90265499D01*
X154674069Y-90229004D01*
X154783049Y-90158967D01*
X154867882Y-90061063D01*
X154921697Y-89943226D01*
X154940133Y-89815000D01*
X154921697Y-89686774D01*
X154867882Y-89568937D01*
X154834143Y-89530000D01*
X163384867Y-89530000D01*
X163403302Y-89658225D01*
X163422609Y-89700500D01*
X163457118Y-89776063D01*
X163541951Y-89873967D01*
X163650931Y-89944004D01*
X163699368Y-89958226D01*
X163775225Y-89980499D01*
X163775227Y-89980500D01*
X163775228Y-89980500D01*
X163904773Y-89980500D01*
X163904773Y-89980499D01*
X164029069Y-89944004D01*
X164138049Y-89873967D01*
X164222882Y-89776063D01*
X164276697Y-89658226D01*
X164295133Y-89530000D01*
X164276697Y-89401774D01*
X164234593Y-89309582D01*
X164224650Y-89240425D01*
X164253675Y-89176869D01*
X164312452Y-89139094D01*
X164382322Y-89139094D01*
X164455225Y-89160499D01*
X164455227Y-89160500D01*
X164455228Y-89160500D01*
X164584773Y-89160500D01*
X164584773Y-89160499D01*
X164709069Y-89124004D01*
X164818049Y-89053967D01*
X164902882Y-88956063D01*
X164956697Y-88838226D01*
X164975133Y-88710000D01*
X164956697Y-88581774D01*
X164902882Y-88463937D01*
X164818049Y-88366033D01*
X164709069Y-88295996D01*
X164709065Y-88295994D01*
X164709064Y-88295994D01*
X164584774Y-88259500D01*
X164584772Y-88259500D01*
X164455228Y-88259500D01*
X164455226Y-88259500D01*
X164330935Y-88295994D01*
X164330932Y-88295995D01*
X164330931Y-88295996D01*
X164323923Y-88300500D01*
X164221950Y-88366033D01*
X164137118Y-88463937D01*
X164137117Y-88463938D01*
X164083302Y-88581774D01*
X164064867Y-88710000D01*
X164083302Y-88838225D01*
X164125405Y-88930416D01*
X164135349Y-88999575D01*
X164106324Y-89063131D01*
X164047546Y-89100905D01*
X163977678Y-89100906D01*
X163904772Y-89079500D01*
X163775228Y-89079500D01*
X163775226Y-89079500D01*
X163650935Y-89115994D01*
X163650932Y-89115995D01*
X163650931Y-89115996D01*
X163614990Y-89139094D01*
X163541950Y-89186033D01*
X163457118Y-89283937D01*
X163457117Y-89283938D01*
X163403302Y-89401774D01*
X163384867Y-89530000D01*
X154834143Y-89530000D01*
X154783049Y-89471033D01*
X154674069Y-89400996D01*
X154674065Y-89400994D01*
X154674064Y-89400994D01*
X154549774Y-89364500D01*
X154549772Y-89364500D01*
X154420228Y-89364500D01*
X154420226Y-89364500D01*
X154295935Y-89400994D01*
X154295932Y-89400995D01*
X154295931Y-89400996D01*
X154244677Y-89433934D01*
X154186950Y-89471033D01*
X154102118Y-89568937D01*
X154102117Y-89568938D01*
X154048302Y-89686774D01*
X154029867Y-89815000D01*
X136183484Y-89815000D01*
X136190725Y-89760000D01*
X136169915Y-89601933D01*
X136108903Y-89454638D01*
X136011848Y-89328152D01*
X135909997Y-89250000D01*
X137894867Y-89250000D01*
X137913302Y-89378225D01*
X137951144Y-89461086D01*
X137967118Y-89496063D01*
X138051951Y-89593967D01*
X138160931Y-89664004D01*
X138285225Y-89700499D01*
X138285227Y-89700500D01*
X138285228Y-89700500D01*
X138414773Y-89700500D01*
X138414773Y-89700499D01*
X138539069Y-89664004D01*
X138648049Y-89593967D01*
X138732882Y-89496063D01*
X138786697Y-89378226D01*
X138805133Y-89250000D01*
X138786697Y-89121774D01*
X138732882Y-89003937D01*
X138660300Y-88920172D01*
X138631277Y-88856617D01*
X138641221Y-88787459D01*
X138681944Y-88740462D01*
X138681348Y-88739774D01*
X138686132Y-88735628D01*
X138686972Y-88734658D01*
X138688049Y-88733967D01*
X138772882Y-88636063D01*
X138826697Y-88518226D01*
X138845133Y-88390000D01*
X138826697Y-88261774D01*
X138772882Y-88143937D01*
X138688049Y-88046033D01*
X138579069Y-87975996D01*
X138579065Y-87975994D01*
X138579064Y-87975994D01*
X138454774Y-87939500D01*
X138454772Y-87939500D01*
X138325228Y-87939500D01*
X138325226Y-87939500D01*
X138200935Y-87975994D01*
X138200932Y-87975995D01*
X138200931Y-87975996D01*
X138149677Y-88008934D01*
X138091950Y-88046033D01*
X138007118Y-88143937D01*
X138007117Y-88143938D01*
X137953302Y-88261774D01*
X137934867Y-88390000D01*
X137953302Y-88518225D01*
X138007117Y-88636061D01*
X138007118Y-88636063D01*
X138071184Y-88710000D01*
X138079698Y-88719826D01*
X138108722Y-88783382D01*
X138098778Y-88852540D01*
X138058055Y-88899537D01*
X138058652Y-88900226D01*
X138053860Y-88904377D01*
X138053025Y-88905342D01*
X138051952Y-88906031D01*
X137967118Y-89003937D01*
X137967117Y-89003938D01*
X137913302Y-89121774D01*
X137894867Y-89250000D01*
X135909997Y-89250000D01*
X135885362Y-89231097D01*
X135878914Y-89226149D01*
X135880133Y-89224559D01*
X135839382Y-89181820D01*
X135826158Y-89113213D01*
X135852126Y-89048348D01*
X135879506Y-89024623D01*
X135878914Y-89023851D01*
X135929909Y-88984720D01*
X136011848Y-88921848D01*
X136108903Y-88795363D01*
X136169915Y-88648067D01*
X136190725Y-88490000D01*
X136169915Y-88331933D01*
X136108903Y-88184638D01*
X136011848Y-88058152D01*
X135904779Y-87975996D01*
X135878914Y-87956149D01*
X135880133Y-87954559D01*
X135839382Y-87911820D01*
X135827466Y-87850000D01*
X153894867Y-87850000D01*
X153913302Y-87978225D01*
X153949804Y-88058152D01*
X153967118Y-88096063D01*
X154051951Y-88193967D01*
X154160931Y-88264004D01*
X154285225Y-88300499D01*
X154285227Y-88300500D01*
X154285228Y-88300500D01*
X154414773Y-88300500D01*
X154414773Y-88300499D01*
X154539069Y-88264004D01*
X154648049Y-88193967D01*
X154720806Y-88110000D01*
X162464867Y-88110000D01*
X162483302Y-88238225D01*
X162526098Y-88331933D01*
X162537118Y-88356063D01*
X162621951Y-88453967D01*
X162730931Y-88524004D01*
X162855225Y-88560499D01*
X162855227Y-88560500D01*
X162855228Y-88560500D01*
X162984773Y-88560500D01*
X162984773Y-88560499D01*
X163109069Y-88524004D01*
X163218049Y-88453967D01*
X163302882Y-88356063D01*
X163356697Y-88238226D01*
X163375133Y-88110000D01*
X163373534Y-88098878D01*
X163383478Y-88029720D01*
X163429233Y-87976916D01*
X163496272Y-87957232D01*
X163516321Y-87960117D01*
X163516448Y-87959238D01*
X163525227Y-87960500D01*
X163525228Y-87960500D01*
X163654773Y-87960500D01*
X163654773Y-87960499D01*
X163779069Y-87924004D01*
X163888049Y-87853967D01*
X163972882Y-87756063D01*
X164026697Y-87638226D01*
X164045133Y-87510000D01*
X164026697Y-87381774D01*
X163972882Y-87263937D01*
X163888049Y-87166033D01*
X163779069Y-87095996D01*
X163779065Y-87095994D01*
X163779064Y-87095994D01*
X163654774Y-87059500D01*
X163654772Y-87059500D01*
X163525228Y-87059500D01*
X163525226Y-87059500D01*
X163400935Y-87095994D01*
X163400932Y-87095995D01*
X163400931Y-87095996D01*
X163372009Y-87114583D01*
X163291950Y-87166033D01*
X163207118Y-87263937D01*
X163207117Y-87263938D01*
X163153302Y-87381774D01*
X163134867Y-87510000D01*
X163136466Y-87521125D01*
X163126519Y-87590283D01*
X163080762Y-87643085D01*
X163013722Y-87662767D01*
X162993678Y-87659884D01*
X162993552Y-87660762D01*
X162984774Y-87659500D01*
X162984772Y-87659500D01*
X162855228Y-87659500D01*
X162855226Y-87659500D01*
X162730935Y-87695994D01*
X162730932Y-87695995D01*
X162730931Y-87695996D01*
X162695058Y-87719050D01*
X162621950Y-87766033D01*
X162537118Y-87863937D01*
X162537117Y-87863938D01*
X162483302Y-87981774D01*
X162464867Y-88110000D01*
X154720806Y-88110000D01*
X154732882Y-88096063D01*
X154786697Y-87978226D01*
X154805133Y-87850000D01*
X154786697Y-87721774D01*
X154732882Y-87603937D01*
X154648049Y-87506033D01*
X154539069Y-87435996D01*
X154539065Y-87435994D01*
X154539064Y-87435994D01*
X154414774Y-87399500D01*
X154414772Y-87399500D01*
X154285228Y-87399500D01*
X154285226Y-87399500D01*
X154160935Y-87435994D01*
X154160932Y-87435995D01*
X154160931Y-87435996D01*
X154109677Y-87468934D01*
X154051950Y-87506033D01*
X153967118Y-87603937D01*
X153967117Y-87603938D01*
X153913302Y-87721774D01*
X153894867Y-87850000D01*
X135827466Y-87850000D01*
X135826158Y-87843213D01*
X135852126Y-87778348D01*
X135879506Y-87754623D01*
X135878914Y-87753851D01*
X135929909Y-87714720D01*
X136011848Y-87651848D01*
X136108903Y-87525363D01*
X136169915Y-87378067D01*
X136190725Y-87220000D01*
X136172294Y-87080000D01*
X137924867Y-87080000D01*
X137943302Y-87208225D01*
X137968746Y-87263938D01*
X137997118Y-87326063D01*
X138081951Y-87423967D01*
X138190931Y-87494004D01*
X138297733Y-87525363D01*
X138315225Y-87530499D01*
X138315227Y-87530500D01*
X138315228Y-87530500D01*
X138444773Y-87530500D01*
X138444773Y-87530499D01*
X138569069Y-87494004D01*
X138678049Y-87423967D01*
X138762882Y-87326063D01*
X138816697Y-87208226D01*
X138826506Y-87140000D01*
X161114867Y-87140000D01*
X161133302Y-87268225D01*
X161183466Y-87378066D01*
X161187118Y-87386063D01*
X161271951Y-87483967D01*
X161380931Y-87554004D01*
X161504489Y-87590283D01*
X161505225Y-87590499D01*
X161505227Y-87590500D01*
X161505228Y-87590500D01*
X161634773Y-87590500D01*
X161634773Y-87590499D01*
X161759069Y-87554004D01*
X161868049Y-87483967D01*
X161952882Y-87386063D01*
X162006697Y-87268226D01*
X162025133Y-87140000D01*
X162006697Y-87011774D01*
X161952882Y-86893937D01*
X161868049Y-86796033D01*
X161759069Y-86725996D01*
X161759065Y-86725994D01*
X161759064Y-86725994D01*
X161634774Y-86689500D01*
X161634772Y-86689500D01*
X161505228Y-86689500D01*
X161505226Y-86689500D01*
X161380935Y-86725994D01*
X161380932Y-86725995D01*
X161380931Y-86725996D01*
X161338535Y-86753242D01*
X161271950Y-86796033D01*
X161187118Y-86893937D01*
X161187117Y-86893938D01*
X161133302Y-87011774D01*
X161114867Y-87140000D01*
X138826506Y-87140000D01*
X138835133Y-87080000D01*
X138816697Y-86951774D01*
X138762882Y-86833937D01*
X138678049Y-86736033D01*
X138569069Y-86665996D01*
X138569065Y-86665994D01*
X138569064Y-86665994D01*
X138444774Y-86629500D01*
X138444772Y-86629500D01*
X138315228Y-86629500D01*
X138315226Y-86629500D01*
X138190935Y-86665994D01*
X138190932Y-86665995D01*
X138190931Y-86665996D01*
X138154358Y-86689500D01*
X138081950Y-86736033D01*
X137997118Y-86833937D01*
X137997117Y-86833938D01*
X137943302Y-86951774D01*
X137924867Y-87080000D01*
X136172294Y-87080000D01*
X136169915Y-87061933D01*
X136108903Y-86914638D01*
X136011848Y-86788152D01*
X135891833Y-86696062D01*
X135878914Y-86686149D01*
X135880133Y-86684559D01*
X135839382Y-86641820D01*
X135826158Y-86573213D01*
X135852126Y-86508348D01*
X135879506Y-86484623D01*
X135878914Y-86483851D01*
X135883926Y-86480005D01*
X167049945Y-86480005D01*
X167070130Y-86723605D01*
X167130138Y-86960573D01*
X167228328Y-87184424D01*
X167324626Y-87331820D01*
X167927452Y-86728993D01*
X167937188Y-86758956D01*
X168025186Y-86897619D01*
X168144903Y-87010040D01*
X168279510Y-87084041D01*
X167677757Y-87685793D01*
X167677758Y-87685794D01*
X167720485Y-87719050D01*
X167720485Y-87719051D01*
X167935468Y-87835394D01*
X167935476Y-87835397D01*
X168166664Y-87914765D01*
X168407779Y-87955000D01*
X168652221Y-87955000D01*
X168893335Y-87914765D01*
X169124523Y-87835397D01*
X169124531Y-87835394D01*
X169339515Y-87719050D01*
X169339516Y-87719048D01*
X169382240Y-87685794D01*
X169382241Y-87685793D01*
X168777534Y-87081086D01*
X168845629Y-87054126D01*
X168978492Y-86957595D01*
X169083175Y-86831055D01*
X169131631Y-86728079D01*
X169735372Y-87331820D01*
X169831669Y-87184429D01*
X169929861Y-86960573D01*
X169961040Y-86837452D01*
X169996579Y-86777296D01*
X170059000Y-86745904D01*
X170128483Y-86753242D01*
X170182969Y-86796980D01*
X170194525Y-86817456D01*
X170245848Y-86932729D01*
X170245851Y-86932734D01*
X170334048Y-87054126D01*
X170357112Y-87085871D01*
X170497784Y-87212533D01*
X170661716Y-87307179D01*
X170841744Y-87365674D01*
X170982808Y-87380500D01*
X170982812Y-87380500D01*
X171077188Y-87380500D01*
X171077192Y-87380500D01*
X171218256Y-87365674D01*
X171398284Y-87307179D01*
X171562216Y-87212533D01*
X171702888Y-87085871D01*
X171814151Y-86932730D01*
X171891144Y-86759803D01*
X171930500Y-86574646D01*
X171930500Y-86574645D01*
X172629500Y-86574645D01*
X172668855Y-86759802D01*
X172668857Y-86759807D01*
X172745848Y-86932729D01*
X172745851Y-86932734D01*
X172834048Y-87054126D01*
X172857112Y-87085871D01*
X172997784Y-87212533D01*
X173161716Y-87307179D01*
X173341744Y-87365674D01*
X173482808Y-87380500D01*
X173482812Y-87380500D01*
X173577188Y-87380500D01*
X173577192Y-87380500D01*
X173718256Y-87365674D01*
X173898284Y-87307179D01*
X174062216Y-87212533D01*
X174202888Y-87085871D01*
X174314151Y-86932730D01*
X174391144Y-86759803D01*
X174430500Y-86574646D01*
X174430500Y-86450000D01*
X176794867Y-86450000D01*
X176813302Y-86578225D01*
X176860904Y-86682457D01*
X176867118Y-86696063D01*
X176951951Y-86793967D01*
X177060931Y-86864004D01*
X177175416Y-86897619D01*
X177185225Y-86900499D01*
X177185227Y-86900500D01*
X177185228Y-86900500D01*
X177314773Y-86900500D01*
X177314773Y-86900499D01*
X177439069Y-86864004D01*
X177548049Y-86793967D01*
X177632882Y-86696063D01*
X177686697Y-86578226D01*
X177705133Y-86450000D01*
X177686697Y-86321774D01*
X177632882Y-86203937D01*
X177548049Y-86106033D01*
X177439069Y-86035996D01*
X177439065Y-86035994D01*
X177439064Y-86035994D01*
X177314774Y-85999500D01*
X177314772Y-85999500D01*
X177185228Y-85999500D01*
X177185226Y-85999500D01*
X177060935Y-86035994D01*
X177060932Y-86035995D01*
X177060931Y-86035996D01*
X177019875Y-86062381D01*
X176951950Y-86106033D01*
X176867118Y-86203937D01*
X176867117Y-86203938D01*
X176813302Y-86321774D01*
X176794867Y-86450000D01*
X174430500Y-86450000D01*
X174430500Y-86385354D01*
X174391144Y-86200197D01*
X174389177Y-86195780D01*
X174314151Y-86027270D01*
X174314148Y-86027265D01*
X174202888Y-85874129D01*
X174199237Y-85870842D01*
X174062216Y-85747467D01*
X173898284Y-85652821D01*
X173898277Y-85652818D01*
X173718259Y-85594327D01*
X173718256Y-85594326D01*
X173577192Y-85579500D01*
X173482808Y-85579500D01*
X173341744Y-85594326D01*
X173341741Y-85594326D01*
X173341740Y-85594327D01*
X173161722Y-85652818D01*
X173161715Y-85652821D01*
X172997785Y-85747466D01*
X172857111Y-85874129D01*
X172745851Y-86027265D01*
X172745848Y-86027270D01*
X172668857Y-86200192D01*
X172668855Y-86200197D01*
X172629500Y-86385354D01*
X172629500Y-86574645D01*
X171930500Y-86574645D01*
X171930500Y-86385354D01*
X171891144Y-86200197D01*
X171889177Y-86195780D01*
X171814151Y-86027270D01*
X171814148Y-86027265D01*
X171702888Y-85874129D01*
X171699237Y-85870842D01*
X171562216Y-85747467D01*
X171398284Y-85652821D01*
X171398277Y-85652818D01*
X171218259Y-85594327D01*
X171218256Y-85594326D01*
X171077192Y-85579500D01*
X170982808Y-85579500D01*
X170841744Y-85594326D01*
X170841741Y-85594326D01*
X170841740Y-85594327D01*
X170661722Y-85652818D01*
X170661715Y-85652821D01*
X170497785Y-85747466D01*
X170357111Y-85874129D01*
X170245851Y-86027265D01*
X170245848Y-86027270D01*
X170194525Y-86142543D01*
X170149275Y-86195780D01*
X170082425Y-86216101D01*
X170015202Y-86197055D01*
X169968947Y-86144689D01*
X169961040Y-86122547D01*
X169929861Y-85999426D01*
X169831671Y-85775575D01*
X169735372Y-85628178D01*
X169132546Y-86231004D01*
X169122812Y-86201044D01*
X169034814Y-86062381D01*
X168915097Y-85949960D01*
X168780489Y-85875958D01*
X169382240Y-85274205D01*
X169382240Y-85274204D01*
X169339514Y-85240949D01*
X169339514Y-85240948D01*
X169124531Y-85124605D01*
X169124523Y-85124602D01*
X168893335Y-85045234D01*
X168652221Y-85005000D01*
X168407779Y-85005000D01*
X168166664Y-85045234D01*
X167935476Y-85124602D01*
X167935468Y-85124605D01*
X167720484Y-85240949D01*
X167720478Y-85240953D01*
X167677758Y-85274203D01*
X167677758Y-85274205D01*
X168282466Y-85878913D01*
X168214371Y-85905874D01*
X168081508Y-86002405D01*
X167976825Y-86128945D01*
X167928368Y-86231921D01*
X167324625Y-85628178D01*
X167228329Y-85775572D01*
X167130138Y-85999426D01*
X167070130Y-86236394D01*
X167049945Y-86479994D01*
X167049945Y-86480005D01*
X135883926Y-86480005D01*
X135937545Y-86438862D01*
X136011848Y-86381848D01*
X136108903Y-86255363D01*
X136169915Y-86108067D01*
X136190725Y-85950000D01*
X136169915Y-85791933D01*
X136108903Y-85644638D01*
X136074651Y-85600000D01*
X154214867Y-85600000D01*
X154233302Y-85728225D01*
X154262397Y-85791932D01*
X154287118Y-85846063D01*
X154371951Y-85943967D01*
X154480931Y-86014004D01*
X154526095Y-86027265D01*
X154605225Y-86050499D01*
X154605227Y-86050500D01*
X154605228Y-86050500D01*
X154734773Y-86050500D01*
X154734773Y-86050499D01*
X154859069Y-86014004D01*
X154968049Y-85943967D01*
X155052882Y-85846063D01*
X155106697Y-85728226D01*
X155125133Y-85600000D01*
X155106697Y-85471774D01*
X155052882Y-85353937D01*
X154968049Y-85256033D01*
X154859069Y-85185996D01*
X154859065Y-85185994D01*
X154859064Y-85185994D01*
X154734774Y-85149500D01*
X154734772Y-85149500D01*
X154605228Y-85149500D01*
X154605226Y-85149500D01*
X154480935Y-85185994D01*
X154480932Y-85185995D01*
X154480931Y-85185996D01*
X154429677Y-85218934D01*
X154371950Y-85256033D01*
X154287118Y-85353937D01*
X154287117Y-85353938D01*
X154233302Y-85471774D01*
X154214867Y-85600000D01*
X136074651Y-85600000D01*
X136011848Y-85518152D01*
X135885362Y-85421097D01*
X135885361Y-85421096D01*
X135799077Y-85385356D01*
X135738067Y-85360085D01*
X135723269Y-85358136D01*
X135619695Y-85344500D01*
X135619688Y-85344500D01*
X135540312Y-85344500D01*
X135540304Y-85344500D01*
X135421933Y-85360085D01*
X135421932Y-85360085D01*
X135274638Y-85421096D01*
X135148153Y-85518150D01*
X135101078Y-85579500D01*
X135063727Y-85628178D01*
X135046149Y-85651086D01*
X135044561Y-85649868D01*
X135001802Y-85690626D01*
X134933193Y-85703839D01*
X134868332Y-85677861D01*
X134844623Y-85650493D01*
X134843851Y-85651086D01*
X134800298Y-85594327D01*
X134741848Y-85518152D01*
X134615362Y-85421097D01*
X134615361Y-85421096D01*
X134529077Y-85385356D01*
X134468067Y-85360085D01*
X134453269Y-85358136D01*
X134349695Y-85344500D01*
X134349688Y-85344500D01*
X134270312Y-85344500D01*
X134270304Y-85344500D01*
X134151933Y-85360085D01*
X134151932Y-85360085D01*
X134004638Y-85421096D01*
X133878153Y-85518150D01*
X133781096Y-85644638D01*
X133720085Y-85791932D01*
X133720085Y-85791933D01*
X133699275Y-85950000D01*
X133710597Y-86035994D01*
X133720085Y-86108066D01*
X133720085Y-86108067D01*
X133781096Y-86255361D01*
X133781097Y-86255362D01*
X133878152Y-86381848D01*
X133977896Y-86458383D01*
X134011086Y-86483851D01*
X134009867Y-86485439D01*
X134050623Y-86528190D01*
X134063839Y-86596798D01*
X134037866Y-86661660D01*
X134010494Y-86685377D01*
X134011086Y-86686149D01*
X133878153Y-86788150D01*
X133781096Y-86914638D01*
X133720085Y-87061932D01*
X133720085Y-87061933D01*
X133715601Y-87095996D01*
X133699275Y-87220000D01*
X133718454Y-87365674D01*
X133720085Y-87378066D01*
X133720085Y-87378067D01*
X133781096Y-87525361D01*
X133781097Y-87525362D01*
X133878152Y-87651848D01*
X133977896Y-87728383D01*
X134011086Y-87753851D01*
X134009867Y-87755439D01*
X134050623Y-87798190D01*
X134063839Y-87866798D01*
X134037866Y-87931660D01*
X134010494Y-87955377D01*
X134011086Y-87956149D01*
X133878153Y-88058150D01*
X133781096Y-88184638D01*
X133720085Y-88331932D01*
X133720085Y-88331933D01*
X133699275Y-88490000D01*
X133720085Y-88648066D01*
X133720085Y-88648067D01*
X133781096Y-88795361D01*
X133781097Y-88795362D01*
X133878152Y-88921848D01*
X133977896Y-88998383D01*
X134011086Y-89023851D01*
X134009867Y-89025439D01*
X134050623Y-89068190D01*
X134063839Y-89136798D01*
X134037866Y-89201660D01*
X134010494Y-89225377D01*
X134011086Y-89226149D01*
X133878153Y-89328150D01*
X133781096Y-89454638D01*
X133720085Y-89601932D01*
X133720085Y-89601933D01*
X133699275Y-89760000D01*
X133720085Y-89918066D01*
X133720085Y-89918067D01*
X133781096Y-90065361D01*
X133789307Y-90076062D01*
X133878152Y-90191848D01*
X133974137Y-90265499D01*
X134011086Y-90293851D01*
X134009867Y-90295439D01*
X134050623Y-90338190D01*
X134063839Y-90406798D01*
X134037866Y-90471660D01*
X134010494Y-90495377D01*
X134011086Y-90496149D01*
X133878153Y-90598150D01*
X133781096Y-90724638D01*
X133720085Y-90871932D01*
X133720085Y-90871933D01*
X133699275Y-91030000D01*
X133718505Y-91176061D01*
X133720085Y-91188066D01*
X133720085Y-91188067D01*
X133781096Y-91335361D01*
X133781097Y-91335362D01*
X133878152Y-91461848D01*
X133972101Y-91533937D01*
X134011086Y-91563851D01*
X134009867Y-91565439D01*
X134050623Y-91608190D01*
X134063839Y-91676798D01*
X134037866Y-91741660D01*
X134010494Y-91765377D01*
X134011086Y-91766149D01*
X133878153Y-91868150D01*
X133781096Y-91994638D01*
X133720085Y-92141932D01*
X133720085Y-92141933D01*
X133699275Y-92300000D01*
X133720085Y-92458066D01*
X133720086Y-92458070D01*
X133751258Y-92533326D01*
X133758727Y-92602795D01*
X133755492Y-92609256D01*
X133750015Y-92656461D01*
X134308553Y-93215000D01*
X134280582Y-93215000D01*
X134193138Y-93229592D01*
X134088939Y-93285981D01*
X134008696Y-93373148D01*
X133961104Y-93481648D01*
X133953986Y-93567539D01*
X133393383Y-93006936D01*
X133306580Y-93181260D01*
X133306575Y-93181273D01*
X133252231Y-93372269D01*
X133233910Y-93569999D01*
X133233910Y-93570000D01*
X125760500Y-93570000D01*
X125760500Y-92360000D01*
X131024867Y-92360000D01*
X131043302Y-92488225D01*
X131096797Y-92605361D01*
X131097118Y-92606063D01*
X131181951Y-92703967D01*
X131290931Y-92774004D01*
X131415225Y-92810499D01*
X131415227Y-92810500D01*
X131415228Y-92810500D01*
X131544773Y-92810500D01*
X131544773Y-92810499D01*
X131669069Y-92774004D01*
X131778049Y-92703967D01*
X131862882Y-92606063D01*
X131916697Y-92488226D01*
X131935133Y-92360000D01*
X131916697Y-92231774D01*
X131862882Y-92113937D01*
X131778049Y-92016033D01*
X131669069Y-91945996D01*
X131669065Y-91945994D01*
X131669064Y-91945994D01*
X131544774Y-91909500D01*
X131544772Y-91909500D01*
X131415228Y-91909500D01*
X131415226Y-91909500D01*
X131290935Y-91945994D01*
X131290932Y-91945995D01*
X131290931Y-91945996D01*
X131252917Y-91970426D01*
X131181950Y-92016033D01*
X131097118Y-92113937D01*
X131097117Y-92113938D01*
X131043302Y-92231774D01*
X131024867Y-92360000D01*
X125760500Y-92360000D01*
X125760500Y-89830000D01*
X129934867Y-89830000D01*
X129953302Y-89958225D01*
X130002231Y-90065362D01*
X130007118Y-90076063D01*
X130091951Y-90173967D01*
X130200931Y-90244004D01*
X130325225Y-90280499D01*
X130325227Y-90280500D01*
X130325228Y-90280500D01*
X130454773Y-90280500D01*
X130454773Y-90280499D01*
X130579069Y-90244004D01*
X130688049Y-90173967D01*
X130772882Y-90076063D01*
X130826697Y-89958226D01*
X130845133Y-89830000D01*
X130826697Y-89701774D01*
X130772882Y-89583937D01*
X130688049Y-89486033D01*
X130579069Y-89415996D01*
X130579065Y-89415994D01*
X130579064Y-89415994D01*
X130454774Y-89379500D01*
X130454772Y-89379500D01*
X130325228Y-89379500D01*
X130325226Y-89379500D01*
X130200935Y-89415994D01*
X130200932Y-89415995D01*
X130200931Y-89415996D01*
X130149677Y-89448934D01*
X130091950Y-89486033D01*
X130007118Y-89583937D01*
X130007117Y-89583938D01*
X129953302Y-89701774D01*
X129934867Y-89830000D01*
X125760500Y-89830000D01*
X125760500Y-83940000D01*
X138024867Y-83940000D01*
X138043302Y-84068225D01*
X138085215Y-84160000D01*
X138097118Y-84186063D01*
X138181951Y-84283967D01*
X138290931Y-84354004D01*
X138415225Y-84390499D01*
X138415227Y-84390500D01*
X138415228Y-84390500D01*
X138544773Y-84390500D01*
X138544773Y-84390499D01*
X138669069Y-84354004D01*
X138778049Y-84283967D01*
X138862882Y-84186063D01*
X138874785Y-84160000D01*
X155564867Y-84160000D01*
X155583302Y-84288225D01*
X155637117Y-84406061D01*
X155637118Y-84406063D01*
X155721951Y-84503967D01*
X155830931Y-84574004D01*
X155955225Y-84610499D01*
X155955227Y-84610500D01*
X155955228Y-84610500D01*
X156084773Y-84610500D01*
X156084773Y-84610499D01*
X156209069Y-84574004D01*
X156318049Y-84503967D01*
X156402882Y-84406063D01*
X156456697Y-84288226D01*
X156475133Y-84160000D01*
X156469382Y-84120000D01*
X156804867Y-84120000D01*
X156823302Y-84248225D01*
X156871611Y-84354004D01*
X156877118Y-84366063D01*
X156961951Y-84463967D01*
X157070931Y-84534004D01*
X157195225Y-84570499D01*
X157195227Y-84570500D01*
X157195228Y-84570500D01*
X157324773Y-84570500D01*
X157324773Y-84570499D01*
X157449069Y-84534004D01*
X157558049Y-84463967D01*
X157642882Y-84366063D01*
X157696697Y-84248226D01*
X157715133Y-84120000D01*
X157696697Y-83991774D01*
X157642882Y-83873937D01*
X157558049Y-83776033D01*
X157449069Y-83705996D01*
X157449065Y-83705994D01*
X157449064Y-83705994D01*
X157324774Y-83669500D01*
X157324772Y-83669500D01*
X157195228Y-83669500D01*
X157195226Y-83669500D01*
X157070935Y-83705994D01*
X157070932Y-83705995D01*
X157070931Y-83705996D01*
X157065479Y-83709500D01*
X156961950Y-83776033D01*
X156877118Y-83873937D01*
X156877117Y-83873938D01*
X156823302Y-83991774D01*
X156804867Y-84120000D01*
X156469382Y-84120000D01*
X156456697Y-84031774D01*
X156402882Y-83913937D01*
X156318049Y-83816033D01*
X156209069Y-83745996D01*
X156209065Y-83745994D01*
X156209064Y-83745994D01*
X156084774Y-83709500D01*
X156084772Y-83709500D01*
X155955228Y-83709500D01*
X155955226Y-83709500D01*
X155830935Y-83745994D01*
X155830932Y-83745995D01*
X155830931Y-83745996D01*
X155784192Y-83776033D01*
X155721950Y-83816033D01*
X155637118Y-83913937D01*
X155637117Y-83913938D01*
X155583302Y-84031774D01*
X155564867Y-84160000D01*
X138874785Y-84160000D01*
X138916697Y-84068226D01*
X138935133Y-83940000D01*
X138916697Y-83811774D01*
X138862882Y-83693937D01*
X138778049Y-83596033D01*
X138669069Y-83525996D01*
X138669065Y-83525994D01*
X138669064Y-83525994D01*
X138544774Y-83489500D01*
X138544772Y-83489500D01*
X138415228Y-83489500D01*
X138415226Y-83489500D01*
X138290935Y-83525994D01*
X138290932Y-83525995D01*
X138290931Y-83525996D01*
X138239677Y-83558934D01*
X138181950Y-83596033D01*
X138097118Y-83693937D01*
X138097117Y-83693938D01*
X138043302Y-83811774D01*
X138024867Y-83940000D01*
X125760500Y-83940000D01*
X125760500Y-83010000D01*
X139334867Y-83010000D01*
X139353302Y-83138225D01*
X139407117Y-83256061D01*
X139407118Y-83256063D01*
X139491951Y-83353967D01*
X139600931Y-83424004D01*
X139725225Y-83460499D01*
X139725227Y-83460500D01*
X139725228Y-83460500D01*
X139854773Y-83460500D01*
X139854773Y-83460499D01*
X139979069Y-83424004D01*
X140088049Y-83353967D01*
X140172882Y-83256063D01*
X140226697Y-83138226D01*
X140245133Y-83010000D01*
X140226697Y-82881774D01*
X140172882Y-82763937D01*
X140088049Y-82666033D01*
X139979069Y-82595996D01*
X139979065Y-82595994D01*
X139979064Y-82595994D01*
X139854774Y-82559500D01*
X139854772Y-82559500D01*
X139725228Y-82559500D01*
X139725226Y-82559500D01*
X139600935Y-82595994D01*
X139600932Y-82595995D01*
X139600931Y-82595996D01*
X139549677Y-82628934D01*
X139491950Y-82666033D01*
X139407118Y-82763937D01*
X139407117Y-82763938D01*
X139353302Y-82881774D01*
X139334867Y-83010000D01*
X125760500Y-83010000D01*
X125760500Y-82220000D01*
X158834867Y-82220000D01*
X158853302Y-82348225D01*
X158907117Y-82466061D01*
X158907118Y-82466063D01*
X158991951Y-82563967D01*
X159100931Y-82634004D01*
X159225225Y-82670499D01*
X159225227Y-82670500D01*
X159225228Y-82670500D01*
X159354773Y-82670500D01*
X159354773Y-82670499D01*
X159479069Y-82634004D01*
X159588049Y-82563967D01*
X159672882Y-82466063D01*
X159726697Y-82348226D01*
X159745133Y-82220000D01*
X159726697Y-82091774D01*
X159672882Y-81973937D01*
X159588049Y-81876033D01*
X159479069Y-81805996D01*
X159479065Y-81805994D01*
X159479064Y-81805994D01*
X159354774Y-81769500D01*
X159354772Y-81769500D01*
X159225228Y-81769500D01*
X159225226Y-81769500D01*
X159100935Y-81805994D01*
X159100932Y-81805995D01*
X159100931Y-81805996D01*
X159049677Y-81838934D01*
X158991950Y-81876033D01*
X158907118Y-81973937D01*
X158907117Y-81973938D01*
X158853302Y-82091774D01*
X158834867Y-82220000D01*
X125760500Y-82220000D01*
X125760500Y-79620000D01*
X148854867Y-79620000D01*
X148873302Y-79748225D01*
X148927117Y-79866061D01*
X148927118Y-79866063D01*
X149011951Y-79963967D01*
X149120931Y-80034004D01*
X149245225Y-80070499D01*
X149245227Y-80070500D01*
X149245228Y-80070500D01*
X149374773Y-80070500D01*
X149374773Y-80070499D01*
X149499069Y-80034004D01*
X149608049Y-79963967D01*
X149692882Y-79866063D01*
X149746697Y-79748226D01*
X149765133Y-79620000D01*
X149746697Y-79491774D01*
X149692882Y-79373937D01*
X149608049Y-79276033D01*
X149499069Y-79205996D01*
X149499065Y-79205994D01*
X149499064Y-79205994D01*
X149374774Y-79169500D01*
X149374772Y-79169500D01*
X149245228Y-79169500D01*
X149245226Y-79169500D01*
X149120935Y-79205994D01*
X149120932Y-79205995D01*
X149120931Y-79205996D01*
X149069677Y-79238934D01*
X149011950Y-79276033D01*
X148927118Y-79373937D01*
X148927117Y-79373938D01*
X148873302Y-79491774D01*
X148854867Y-79620000D01*
X125760500Y-79620000D01*
X125760500Y-71814500D01*
X125780185Y-71747461D01*
X125832989Y-71701706D01*
X125884500Y-71690500D01*
X182555500Y-71690500D01*
X182622539Y-71710185D01*
G37*
%TD.AperFunction*%
%TD*%
M02*
