M48
; DRILL file {KiCad 7.0.5} date Sun 06 Aug 2023 02:28:45 PM CDT
; FORMAT={-:-/ absolute / metric / decimal}
; #@! TF.CreationDate,2023-08-06T14:28:45-05:00
; #@! TF.GenerationSoftware,Kicad,Pcbnew,7.0.5
; #@! TF.FileFunction,Plated,1,3,Blind
FMAT,2
METRIC
; #@! TA.AperFunction,Plated,Buried,ViaDrill
T1C0.100
; #@! TA.AperFunction,Plated,Buried,ViaDrill
T2C0.400
%
G90
G05
T1
X153.93Y-119.26
X154.93Y-119.26
T2
X130.39Y-89.83
X131.48Y-92.36
X137.85Y-93.58
X138.29Y-90.93
X138.34Y-92.4
X138.35Y-89.25
X138.39Y-88.39
X138.48Y-83.94
X139.79Y-83.01
X149.31Y-79.62
X154.35Y-87.85
X154.67Y-85.6
X157.26Y-84.12
X159.29Y-82.22
X161.57Y-87.14
X161.62Y-92.4
X161.87Y-91.46
X162.92Y-88.11
X163.22Y-91.78
X163.59Y-87.51
X163.84Y-89.53
X164.52Y-88.71
T0
M30
