%TF.GenerationSoftware,KiCad,Pcbnew,7.0.6*%
%TF.CreationDate,2023-08-07T11:18:25-05:00*%
%TF.ProjectId,mainv2,6d61696e-7632-42e6-9b69-6361645f7063,rev?*%
%TF.SameCoordinates,Original*%
%TF.FileFunction,Copper,L3,Inr*%
%TF.FilePolarity,Positive*%
%FSLAX46Y46*%
G04 Gerber Fmt 4.6, Leading zero omitted, Abs format (unit mm)*
G04 Created by KiCad (PCBNEW 7.0.6) date 2023-08-07 11:18:25*
%MOMM*%
%LPD*%
G01*
G04 APERTURE LIST*
%TA.AperFunction,ComponentPad*%
%ADD10C,1.950000*%
%TD*%
%TA.AperFunction,ComponentPad*%
%ADD11R,1.700000X1.700000*%
%TD*%
%TA.AperFunction,ComponentPad*%
%ADD12O,1.700000X1.700000*%
%TD*%
%TA.AperFunction,ComponentPad*%
%ADD13C,1.143000*%
%TD*%
%TA.AperFunction,ComponentPad*%
%ADD14O,0.900000X1.600000*%
%TD*%
%TA.AperFunction,ComponentPad*%
%ADD15O,0.900000X1.300000*%
%TD*%
%TA.AperFunction,ViaPad*%
%ADD16C,0.800000*%
%TD*%
%TA.AperFunction,ViaPad*%
%ADD17C,0.400000*%
%TD*%
%TA.AperFunction,Conductor*%
%ADD18C,0.300000*%
%TD*%
G04 APERTURE END LIST*
D10*
%TO.N,+3.3V*%
%TO.C,S1*%
X173530000Y-86480000D03*
%TO.N,Net-(S1-C_1)*%
X171030000Y-86480000D03*
%TO.N,GND*%
X168530000Y-86480000D03*
%TO.N,+3.3V*%
X168530000Y-96480000D03*
%TO.N,Net-(S1-C_2)*%
X171030000Y-96480000D03*
%TO.N,unconnected-(S1-N.O._2-Pad6)*%
X173530000Y-96480000D03*
%TD*%
D11*
%TO.N,GND*%
%TO.C,J2*%
X141720000Y-109800000D03*
D12*
%TO.N,Net-(J2-Pin_2)*%
X141720000Y-107260000D03*
%TD*%
D13*
%TO.N,/VDD_SPI*%
%TO.C,J4*%
X135580000Y-93570000D03*
%TO.N,GND*%
X134310000Y-93570000D03*
%TO.N,/FSPIQ*%
X135580000Y-92300000D03*
%TO.N,/FSPID*%
X134310000Y-92300000D03*
%TO.N,/FSPICLK*%
X135580000Y-91030000D03*
%TO.N,/FSPICS0*%
X134310000Y-91030000D03*
%TO.N,/D{slash}C*%
X135580000Y-89760000D03*
%TO.N,/LCD_RST*%
X134310000Y-89760000D03*
%TO.N,/LCD_BL*%
X135580000Y-88490000D03*
%TO.N,/I2CEXT0_SCL_in*%
X134310000Y-88490000D03*
%TO.N,/I2CEXT0_SDA_in*%
X135580000Y-87220000D03*
%TO.N,/TP_INT*%
X134310000Y-87220000D03*
%TO.N,/TP_RST*%
X135580000Y-85950000D03*
%TO.N,unconnected-(J4-Pad14)*%
X134310000Y-85950000D03*
%TD*%
D14*
%TO.N,GND*%
%TO.C,J1*%
X160300000Y-115240000D03*
X148460000Y-115240000D03*
D15*
X159030000Y-119560000D03*
X149730000Y-119560000D03*
%TD*%
D16*
%TO.N,+3.3V*%
X155680000Y-98000000D03*
X154245000Y-89575000D03*
X168570000Y-98920000D03*
X177250000Y-86450000D03*
%TO.N,/SPICS0*%
X149310000Y-79620000D03*
X161570000Y-87140000D03*
%TO.N,/D1+*%
X163570000Y-87250000D03*
D17*
X154930000Y-119260000D03*
D16*
%TO.N,/D1-*%
X162920000Y-88110000D03*
D17*
X153930000Y-119260000D03*
D16*
%TO.N,/TP_INT*%
X154320000Y-87620000D03*
X138480000Y-83940000D03*
%TO.N,/TP_RST*%
X138380000Y-87080000D03*
%TO.N,/FSPIQ*%
X161620000Y-92400000D03*
X138540000Y-92400000D03*
%TO.N,/FSPICLK*%
X161870000Y-91460000D03*
X138550000Y-90930000D03*
%TO.N,/FSPID*%
X131480000Y-92360000D03*
X163220000Y-91780000D03*
%TO.N,/D{slash}C*%
X138350000Y-89250000D03*
X163840000Y-89530000D03*
%TO.N,/LCD_RST*%
X130390000Y-89830000D03*
X164400000Y-88750000D03*
%TO.N,/LCD_BL*%
X138390000Y-88390000D03*
X157060000Y-83980000D03*
%TO.N,/FSPICS0*%
X154420000Y-85610000D03*
X139790000Y-83010000D03*
%TO.N,VBUS*%
X167630000Y-119120000D03*
%TO.N,/VDD_SPI*%
X159290000Y-82220000D03*
X137850000Y-93580000D03*
%TD*%
D18*
%TO.N,/FSPICS0*%
X154420000Y-85610000D02*
X154420000Y-82620000D01*
X154420000Y-82620000D02*
X140180000Y-82620000D01*
X140180000Y-82620000D02*
X139790000Y-83010000D01*
%TO.N,/VDD_SPI*%
X137850000Y-93580000D02*
X137690000Y-93420000D01*
X137690000Y-93420000D02*
X137690000Y-82220000D01*
X137690000Y-82220000D02*
X159290000Y-82220000D01*
%TO.N,/FSPIQ*%
X161620000Y-92400000D02*
X138540000Y-92400000D01*
%TO.N,/FSPICLK*%
X138550000Y-90930000D02*
X161340000Y-90930000D01*
X161340000Y-90930000D02*
X161870000Y-91460000D01*
%TO.N,/D{slash}C*%
X163840000Y-89530000D02*
X163800000Y-89570000D01*
X163800000Y-89570000D02*
X161560000Y-89570000D01*
X161560000Y-89570000D02*
X160820000Y-88830000D01*
X160820000Y-88830000D02*
X139290000Y-88830000D01*
X139290000Y-88830000D02*
X138870000Y-89250000D01*
X138870000Y-89250000D02*
X138350000Y-89250000D01*
%TO.N,/SPICS0*%
X161570000Y-87140000D02*
X161570000Y-79620000D01*
X161570000Y-79620000D02*
X149310000Y-79620000D01*
%TO.N,/D1+*%
X156255000Y-120585000D02*
X154930000Y-119260000D01*
X165540000Y-114375305D02*
X159330305Y-120585000D01*
X159330305Y-120585000D02*
X156255000Y-120585000D01*
X163570000Y-87250000D02*
X165250000Y-87250000D01*
X165540000Y-87540000D02*
X165540000Y-114375305D01*
X165250000Y-87250000D02*
X165540000Y-87540000D01*
%TO.N,/D1-*%
X165120000Y-111860000D02*
X147720000Y-111860000D01*
X147720000Y-111860000D02*
X147720000Y-121370000D01*
X165120000Y-88110000D02*
X165120000Y-111860000D01*
X147720000Y-121370000D02*
X151820000Y-121370000D01*
X162920000Y-88110000D02*
X165120000Y-88110000D01*
X151820000Y-121370000D02*
X153930000Y-119260000D01*
%TO.N,/TP_INT*%
X154320000Y-87620000D02*
X154090000Y-87850000D01*
X142390000Y-87850000D02*
X138480000Y-83940000D01*
X154090000Y-87850000D02*
X142390000Y-87850000D01*
%TO.N,/FSPID*%
X163220000Y-91780000D02*
X163200000Y-91800000D01*
X131460000Y-94900000D02*
X131460000Y-92380000D01*
X163200000Y-91800000D02*
X163200000Y-94900000D01*
X163200000Y-94900000D02*
X131460000Y-94900000D01*
X131460000Y-92380000D02*
X131480000Y-92360000D01*
%TO.N,/LCD_RST*%
X130410000Y-95390000D02*
X130410000Y-89850000D01*
X164400000Y-88750000D02*
X164520000Y-88870000D01*
X164520000Y-95390000D02*
X130410000Y-95390000D01*
X130410000Y-89850000D02*
X130390000Y-89830000D01*
X164520000Y-88870000D02*
X164520000Y-95390000D01*
%TO.N,/LCD_BL*%
X157240000Y-84308529D02*
X157240000Y-88320000D01*
X138460000Y-88320000D02*
X138390000Y-88390000D01*
X157060000Y-83980000D02*
X157060000Y-84128529D01*
X157060000Y-84128529D02*
X157240000Y-84308529D01*
X157240000Y-88320000D02*
X138460000Y-88320000D01*
%TD*%
M02*
