M48
; DRILL file {KiCad 7.0.5} date Sun 06 Aug 2023 02:28:45 PM CDT
; FORMAT={-:-/ absolute / metric / decimal}
; #@! TF.CreationDate,2023-08-06T14:28:45-05:00
; #@! TF.GenerationSoftware,Kicad,Pcbnew,7.0.5
; #@! TF.FileFunction,Plated,1,4,PTH
FMAT,2
METRIC
; #@! TA.AperFunction,Plated,PTH,ViaDrill
T1C0.400
; #@! TA.AperFunction,Plated,PTH,ComponentDrill
T2C0.650
; #@! TA.AperFunction,Plated,PTH,ComponentDrill
T3C0.710
; #@! TA.AperFunction,Plated,PTH,ComponentDrill
T4C1.000
; #@! TA.AperFunction,Plated,PTH,ComponentDrill
T5C1.300
%
G90
G05
T1
X138.38Y-87.08
X151.47Y-91.53
X152.22Y-119.02
X152.47Y-107.94
X154.485Y-89.815
X155.68Y-98.0
X155.7Y-99.38
X156.02Y-84.16
X156.31Y-118.99
X159.79Y-93.82
X167.63Y-119.12
X168.57Y-98.92
X177.25Y-86.45
T3
X134.31Y-85.95
X134.31Y-87.22
X134.31Y-88.49
X134.31Y-89.76
X134.31Y-91.03
X134.31Y-92.3
X134.31Y-93.57
X135.58Y-85.95
X135.58Y-87.22
X135.58Y-88.49
X135.58Y-89.76
X135.58Y-91.03
X135.58Y-92.3
X135.58Y-93.57
T4
X141.72Y-107.26
X141.72Y-109.8
T5
X168.53Y-86.48
X168.53Y-96.48
X171.03Y-86.48
X171.03Y-96.48
X173.53Y-86.48
X173.53Y-96.48
T2
G00X148.46Y-115.69
M15
G01X148.46Y-114.79
M16
G05
G00X149.73Y-119.86
M15
G01X149.73Y-119.26
M16
G05
G00X159.03Y-119.86
M15
G01X159.03Y-119.26
M16
G05
G00X160.3Y-115.69
M15
G01X160.3Y-114.79
M16
G05
T0
M30
